<svg xmlns="http://www.w3.org/2000/svg"  width="225" height="224" viewBox="0 0 2250 2240"><g id="l58E2RXt7UhFrZveeCvuTV2" fill="rgb(255,255,255)" style="transform: none;"><g><path id="pV6Xs8jQD" d="M0 1120 l0 -1120 1125 0 1125 0 0 1120 0 1120 -1125 0 -1125 0 0 -1120z"></path></g></g><g id="l1MTrBtCS04Y9sep5F0Cm5h" fill="rgb(170,170,170)" style="transform: none;"></g><g id="l3XcagnkQRjJl7nU3B07h6O" fill="rgb(85,85,85)" style="transform: none;"><g><path id="phcPz581V" d="M1121 2203 c0 -17 -6 -44 -11 -59 -7 -19 -7 -30 1 -40 17 -21 42 2 32 30 -3 12 -10 39 -14 61 -6 37 -7 38 -8 8z"></path><path id="pMsYxD9dl" d="M1046 2084 c-19 -18 -21 -50 -4 -60 6 -4 31 -8 55 -9 24 -1 49 -7 56 -14 10 -11 8 -11 -9 -3 -12 6 -26 7 -34 2 -9 -6 -17 -4 -22 3 -6 9 -13 6 -26 -9 -10 -11 -24 -18 -31 -16 -8 3 -19 -2 -25 -10 -6 -8 -19 -17 -28 -21 -10 -3 -18 -13 -18 -22 0 -8 -7 -15 -15 -15 -8 0 -15 -4 -15 -10 0 -22 -30 -8 -45 20 -9 17 -18 30 -21 30 -2 0 2 -13 11 -30 14 -27 5 -44 -10 -20 -4 6 -14 10 -23 9 -10 -1 -25 1 -35 6 -10 4 -22 4 -27 -1 -5 -5 -31 -7 -59 -6 -56 4 -72 27 -42 63 21 26 53 16 49 -15 -4 -26 -34 -28 -31 -2 1 12 -2 15 -9 8 -15 -15 -2 -42 21 -42 30 0 44 32 25 58 -21 30 -51 27 -72 -6 -11 -18 -24 -26 -38 -24 -25 4 -54 -22 -54 -47 0 -26 25 -44 51 -36 18 6 20 4 14 -17 -4 -12 -14 -27 -21 -31 -8 -4 -14 -16 -14 -26 0 -10 -7 -24 -15 -31 -10 -8 -13 -21 -9 -33 4 -13 2 -17 -5 -13 -7 5 -9 1 -5 -8 8 -21 -19 -30 -48 -16 -21 10 -21 10 -6 -3 23 -18 23 -26 -1 -20 -10 3 -22 0 -25 -6 -4 -6 -16 -11 -26 -11 -10 0 -23 -6 -27 -12 -4 -7 -28 -23 -52 -35 -34 -18 -47 -20 -58 -11 -20 16 -12 62 11 66 24 5 40 -12 32 -35 -7 -17 -8 -17 -22 1 -7 11 -17 16 -21 13 -12 -12 22 -38 41 -31 11 4 16 15 14 33 -2 21 -9 27 -36 29 -26 3 -34 -1 -41 -20 -5 -13 -5 -30 1 -40 7 -14 5 -18 -10 -18 -26 0 -44 -24 -40 -51 7 -47 68 -52 68 -5 0 25 -25 43 -35 26 -4 -6 1 -10 10 -10 10 0 15 -7 13 -17 -4 -23 -28 -23 -42 -1 -15 25 14 53 46 45 22 -6 23 -10 22 -94 -1 -65 3 -93 14 -105 12 -15 12 -18 2 -18 -10 0 -11 -3 -3 -11 16 -16 4 -39 -21 -40 -20 0 -20 -1 -2 -8 19 -7 19 -8 -2 -13 -12 -4 -22 -13 -22 -21 0 -8 -7 -17 -15 -21 -8 -3 -15 -12 -15 -21 0 -9 -7 -26 -16 -39 -10 -17 -12 -26 -4 -31 8 -5 8 -11 -1 -21 -9 -11 -8 -18 2 -30 10 -12 10 -17 1 -23 -9 -5 -8 -12 3 -27 8 -10 15 -27 15 -36 0 -9 6 -21 13 -25 8 -4 16 -16 20 -25 3 -10 14 -18 24 -18 15 0 16 -2 3 -10 -13 -8 -13 -10 1 -10 21 0 31 -24 16 -39 -8 -8 -7 -11 3 -11 10 0 10 -4 -3 -17 -12 -14 -14 -34 -11 -85 4 -63 -6 -89 -20 -53 -7 19 -40 19 -56 1 -17 -22 -8 -60 18 -71 12 -5 22 -17 21 -25 -5 -52 24 -80 61 -60 24 13 27 55 3 64 -18 7 -52 -19 -40 -31 4 -3 14 2 21 13 14 18 15 18 22 1 8 -23 -8 -40 -32 -35 -23 4 -31 50 -11 66 11 9 24 7 58 -11 24 -12 48 -28 52 -34 4 -7 17 -13 27 -13 10 0 22 -5 26 -11 3 -6 15 -9 25 -6 34 9 20 -10 -26 -34 -25 -13 -45 -27 -45 -31 0 -13 7 -10 54 23 46 33 84 34 72 3 -3 -8 -2 -12 4 -9 6 3 10 -5 10 -19 0 -14 5 -28 10 -31 6 -3 10 -15 10 -25 0 -10 6 -23 14 -27 7 -4 17 -19 21 -32 6 -20 4 -23 -10 -18 -23 9 -55 -10 -55 -33 0 -26 28 -52 54 -48 14 2 27 -6 38 -24 21 -33 48 -36 72 -9 14 15 15 24 6 40 -13 25 -33 27 -50 6 -9 -11 -10 -19 -3 -26 8 -8 11 -6 10 7 -3 26 27 24 31 -2 4 -31 -28 -41 -49 -15 -30 36 -14 59 42 63 28 1 54 -1 59 -6 5 -5 17 -5 27 -1 10 4 28 7 41 6 12 -1 22 2 22 7 0 5 14 9 30 10 17 0 30 -4 30 -9 0 -5 7 -9 15 -9 8 0 15 -7 15 -15 0 -9 8 -19 18 -22 9 -4 21 -12 25 -20 4 -7 16 -13 25 -13 9 0 28 -9 42 -20 l25 -20 -26 0 c-44 0 -54 -53 -14 -72 19 -9 29 -8 48 5 22 14 26 14 40 -1 23 -22 71 -6 75 27 5 32 -5 39 -67 45 -54 5 -69 11 -58 22 4 4 12 2 20 -4 8 -7 18 -7 27 -2 9 6 17 5 22 -3 5 -8 12 -6 26 6 10 9 26 17 35 17 9 0 20 6 24 13 4 8 16 16 26 20 9 3 17 13 17 22 0 8 6 15 14 15 8 0 17 6 19 13 3 6 6 3 7 -8 1 -20 1 -20 9 0 7 18 9 17 25 -13 9 -17 19 -32 22 -32 2 0 -2 13 -11 30 -9 17 -11 30 -5 30 5 0 10 -5 10 -11 0 -6 10 -9 23 -8 12 1 30 -2 40 -6 10 -4 22 -4 27 1 5 5 31 7 59 6 38 -3 50 -8 54 -23 7 -27 -23 -62 -46 -53 -22 8 -19 49 3 49 9 0 14 -7 12 -20 -3 -15 -1 -17 7 -9 16 15 3 44 -20 44 -28 0 -41 -32 -23 -58 21 -30 51 -27 72 6 11 18 24 26 38 24 25 -4 54 22 54 47 0 26 -25 44 -51 36 -18 -6 -20 -4 -14 17 4 12 14 27 21 31 8 4 14 16 14 26 0 10 6 24 14 30 8 7 12 21 8 33 -3 14 -1 19 6 14 8 -5 10 -1 6 9 -5 11 0 18 15 22 11 3 21 9 21 13 0 5 8 6 19 3 10 -3 22 0 25 6 4 6 16 11 26 11 10 0 23 6 27 13 4 6 28 22 52 34 34 18 47 20 58 11 22 -18 12 -62 -15 -66 -26 -4 -42 25 -21 38 15 10 32 3 24 -11 -4 -5 -1 -9 4 -9 15 0 14 15 -3 29 -20 17 -46 3 -46 -25 0 -30 32 -49 60 -34 19 10 24 25 21 60 -1 8 9 20 21 25 45 20 20 99 -26 82 -24 -9 -21 -57 3 -57 11 0 22 4 25 9 4 5 -3 7 -15 4 -17 -5 -20 -2 -17 13 4 23 27 25 41 2 13 -20 -6 -48 -34 -48 -27 0 -32 16 -33 105 -1 54 -6 88 -15 99 -11 13 -11 16 0 16 10 0 10 3 2 11 -18 18 -4 39 26 40 l26 1 -25 8 c-17 5 -19 8 -7 9 10 1 22 12 27 26 5 14 14 25 20 25 5 0 10 7 10 15 0 9 7 26 16 39 10 16 11 26 5 31 -7 4 -7 12 2 26 10 16 9 21 -2 28 -10 6 -10 10 -2 16 9 5 8 13 -3 31 -9 13 -16 30 -16 39 0 9 -6 18 -14 21 -8 3 -16 14 -19 25 -3 10 -13 19 -24 20 -13 1 -11 3 7 9 l25 8 -26 1 c-30 1 -44 22 -26 40 8 8 8 11 -2 11 -11 0 -11 3 0 17 10 11 14 45 14 107 l0 91 29 0 c38 0 57 -28 34 -51 -18 -18 -38 -11 -38 13 0 11 6 14 21 10 16 -4 18 -3 9 8 -6 8 -18 11 -26 8 -19 -7 -18 -52 2 -60 45 -17 71 62 27 82 -17 7 -23 18 -23 42 0 39 -29 60 -60 43 -24 -13 -27 -55 -3 -64 18 -7 52 19 40 31 -4 3 -14 -2 -21 -13 -14 -18 -15 -18 -22 -1 -8 23 8 40 32 35 23 -4 29 -37 12 -61 -13 -17 -16 -17 -58 5 -25 13 -49 29 -53 36 -4 6 -17 12 -27 12 -10 0 -22 5 -26 11 -3 6 -15 9 -25 6 -34 -9 -20 10 26 34 25 13 45 27 45 31 0 13 -7 10 -54 -23 -46 -33 -84 -34 -72 -3 4 10 2 13 -6 8 -7 -5 -9 0 -5 15 3 12 -1 27 -9 35 -8 8 -14 21 -14 30 0 8 -6 19 -14 23 -7 4 -17 19 -21 32 -6 20 -4 23 10 18 23 -9 55 10 55 33 0 27 -29 52 -56 47 -16 -3 -25 2 -32 19 -16 34 -52 41 -74 14 -13 -17 -15 -26 -8 -41 13 -23 33 -24 50 -4 9 11 10 19 3 26 -8 8 -11 6 -10 -7 3 -26 -27 -24 -31 2 -4 29 27 40 50 17 11 -11 15 -26 12 -40 -5 -17 -15 -22 -55 -25 -28 -1 -54 1 -59 6 -5 5 -17 5 -27 1 -10 -4 -28 -7 -40 -6 -13 1 -23 -2 -23 -7 0 -5 -13 -9 -30 -10 -16 0 -30 4 -30 9 0 5 -6 9 -14 9 -7 0 -16 9 -19 20 -3 11 -12 20 -20 20 -8 0 -17 7 -21 15 -3 8 -13 15 -23 15 -10 0 -29 9 -43 20 l-25 20 27 0 c32 0 42 13 34 45 -8 31 -50 44 -74 22 -15 -13 -20 -14 -36 -1 -25 18 -41 18 -60 -2z m59 -14 c9 -10 15 -26 12 -35 -9 -22 -24 -18 -23 6 1 12 -6 24 -14 27 -12 4 -13 3 -3 -10 14 -16 8 -28 -14 -28 -20 0 -27 28 -13 45 17 20 33 19 55 -5z m99 -2 c13 -22 -5 -44 -29 -34 -15 5 -15 9 -4 23 12 14 12 16 -1 11 -8 -3 -15 -15 -14 -27 1 -24 -14 -28 -23 -6 -7 19 25 57 45 53 8 -2 20 -11 26 -20z m4 -108 c24 -11 41 -24 37 -30 -4 -6 -1 -9 7 -8 7 2 12 -3 10 -10 -1 -8 2 -11 7 -8 13 8 34 -21 25 -35 -4 -8 -3 -9 4 -5 7 4 12 2 12 -3 0 -15 -33 -14 -49 2 -10 10 -11 9 -6 -4 4 -11 -1 -18 -17 -23 -32 -8 -60 -8 -55 2 3 4 -16 8 -41 9 -46 1 -46 1 -10 -6 20 -4 43 -13 51 -19 8 -7 16 -10 19 -7 2 3 5 -1 6 -7 8 -56 20 -109 21 -94 0 11 9 29 19 40 16 20 16 20 0 7 -21 -15 -24 -2 -5 18 10 11 9 13 -5 8 -13 -5 -18 -1 -18 13 0 25 88 55 105 36 6 -6 26 -24 45 -41 l34 -30 -17 27 c-16 25 -16 28 1 37 9 6 12 11 7 11 -6 0 -16 -5 -22 -11 -7 -7 -16 -5 -28 8 -17 17 -16 18 21 35 54 24 174 22 158 -3 -3 -5 1 -6 9 -3 18 6 79 -44 70 -58 -3 -7 -1 -8 6 -4 12 8 37 -41 48 -96 6 -32 -12 -54 -32 -39 -18 15 -75 24 -75 12 0 -6 10 -11 22 -11 12 0 37 -6 56 -12 27 -10 33 -17 29 -35 -2 -12 -1 -20 3 -18 10 6 20 -19 20 -47 0 -15 -5 -19 -20 -15 -11 3 -23 1 -26 -4 -3 -5 -10 -7 -15 -4 -5 4 -12 -1 -15 -9 -3 -9 -12 -16 -19 -16 -7 0 -18 -7 -26 -16 -10 -13 -10 -17 0 -24 9 -5 10 -10 3 -14 -6 -4 -9 -13 -5 -21 3 -9 0 -22 -7 -30 -13 -16 -10 -18 14 -9 11 4 13 12 6 29 -7 18 -4 27 10 40 11 10 17 22 14 26 -3 5 10 16 29 25 92 44 178 -61 116 -140 -20 -25 -47 -38 -33 -15 4 7 -2 7 -17 -1 -33 -17 -38 -24 -12 -16 12 4 24 3 26 -1 3 -5 -2 -9 -11 -10 -9 -1 -28 -4 -42 -8 -17 -5 -21 -4 -12 3 11 7 9 10 -7 15 -30 7 -26 23 9 37 17 7 30 16 30 21 0 14 -10 11 -37 -11 -29 -22 -43 -19 -23 5 11 13 10 14 -4 9 -9 -3 -16 -15 -16 -25 0 -10 -2 -19 -4 -19 -2 0 -13 -3 -23 -6 -16 -5 -16 -4 2 11 l20 17 -20 -6 c-14 -3 -26 3 -39 20 -18 25 -18 26 3 45 25 24 25 23 6 39 -13 11 -14 10 -10 -2 8 -20 -22 -45 -36 -31 -7 7 -7 17 3 32 10 17 10 25 0 42 -14 21 -11 29 26 67 6 7 12 20 12 28 0 8 8 14 18 14 10 0 13 3 6 8 -6 4 -11 14 -12 22 0 8 -4 32 -8 53 -4 25 -3 37 5 37 6 0 11 5 11 12 0 9 -3 9 -12 0 -29 -29 -76 -4 -62 33 4 8 1 15 -5 15 -6 0 -11 -8 -11 -19 0 -14 -10 -20 -40 -25 -22 -3 -40 -11 -40 -18 0 -6 -9 -3 -20 7 -20 18 -20 18 -4 -13 8 -18 12 -37 8 -43 -4 -8 -3 -9 5 -5 6 4 10 15 9 24 -4 22 46 46 80 37 15 -4 21 -9 15 -13 -7 -4 -1 -14 16 -26 l26 -20 -19 22 c-18 20 -18 21 1 19 21 -1 21 -1 27 -67 4 -41 4 -42 -3 -10 l-8 35 -2 -30 c0 -17 -9 -42 -18 -55 -16 -24 -16 -24 0 -11 9 7 17 9 17 3 0 -5 -7 -15 -15 -22 -8 -7 -15 -9 -15 -5 0 4 -6 3 -13 -3 -24 -20 -62 -1 -59 29 1 3 -10 5 -23 4 -13 -2 -29 3 -36 11 -6 7 -15 11 -20 8 -11 -6 -11 -1 -3 21 6 13 9 14 16 3 6 -9 7 -6 3 9 -3 12 -1 31 4 42 9 16 7 24 -11 43 -13 13 -17 17 -10 8 27 -36 4 -106 -37 -112 -31 -5 -70 20 -63 40 2 6 -1 12 -6 12 -6 0 -13 -18 -17 -40 -8 -45 -25 -63 -26 -28 0 22 -1 22 -9 3 -6 -16 -8 -12 -8 18 1 20 -2 40 -5 44 -4 3 -7 -1 -7 -10 0 -26 -20 -20 -21 6 l-2 22 -4 -22 c-3 -14 -12 -23 -22 -23 -14 0 -17 -7 -15 -27 2 -16 1 -20 -2 -10 -8 24 -23 22 -17 -3 3 -11 1 -20 -5 -20 -5 0 -13 20 -16 45 -4 25 -11 45 -15 45 -11 0 -11 -49 0 -56 5 -3 9 -13 9 -22 -1 -15 -3 -14 -17 3 -12 16 -14 16 -10 3 3 -10 1 -20 -5 -24 -7 -5 -9 4 -6 25 3 17 1 28 -4 23 -5 -5 -22 -7 -38 -4 -42 6 -65 76 -37 112 6 9 2 5 -11 -8 -18 -19 -20 -27 -11 -43 5 -11 7 -30 4 -42 -5 -17 -4 -19 4 -7 6 8 11 12 11 8 0 -3 3 -14 7 -24 4 -11 2 -15 -4 -11 -6 4 -18 -2 -28 -13 -13 -14 -14 -22 -6 -37 10 -16 11 -15 9 7 -2 19 2 25 17 25 12 0 21 -8 23 -20 l3 -20 -17 20 c-16 20 -16 20 -10 -1 5 -15 1 -24 -11 -28 -10 -4 -19 -2 -21 3 -7 21 -20 11 -15 -11 4 -19 3 -20 -6 -8 -14 20 -14 47 1 52 8 3 6 7 -5 11 -9 3 -16 3 -16 -1 5 -31 -34 -51 -58 -30 -7 6 -13 7 -13 2 -1 -5 -12 4 -25 21 -22 27 -24 27 -22 7 1 -12 6 -22 12 -22 5 0 16 -9 23 -20 10 -16 10 -24 0 -40 -10 -16 -10 -24 0 -41 16 -25 4 -43 -21 -33 -20 7 -22 25 -4 44 6 8 2 6 -10 -4 -23 -19 -21 -41 3 -50 8 -3 14 -11 14 -18 0 -9 -3 -9 -12 0 -17 17 -33 15 -19 -2 17 -21 4 -45 -22 -39 -22 5 -22 5 -2 -10 21 -17 17 -21 -9 -11 -9 3 -16 14 -16 23 0 10 -12 23 -27 30 l-28 12 23 -19 c28 -21 21 -49 -15 -63 -31 -12 -53 -12 -35 -1 9 6 5 12 -13 20 -19 9 -24 9 -19 1 4 -7 1 -10 -7 -7 -8 3 -13 11 -11 17 1 7 -2 10 -7 6 -14 -8 -31 27 -31 62 0 31 24 73 42 73 6 0 3 -10 -8 -22 l-19 -22 26 20 c18 12 23 21 15 26 -8 6 -8 8 2 8 6 0 12 5 12 11 0 6 -13 1 -29 -10 -34 -25 -54 -26 -71 -6 -7 8 -16 12 -21 9 -17 -10 -9 -22 22 -28 23 -4 29 -9 22 -18 -6 -7 -9 -25 -6 -40 3 -21 -5 -36 -37 -68 -22 -22 -42 -40 -45 -40 -13 0 -37 69 -39 109 -1 51 21 114 37 104 6 -3 7 -1 3 6 -10 15 13 43 27 34 5 -3 7 -1 4 4 -9 14 19 37 34 27 8 -5 9 -3 4 6 -6 10 -4 12 9 7 9 -4 15 -3 12 2 -8 12 18 21 61 21 27 0 34 -4 31 -17 -2 -10 -16 -21 -33 -24 -29 -6 -29 -7 -4 -8 23 -1 26 -5 23 -28 -3 -24 -2 -23 6 5 6 18 14 31 19 28 4 -3 7 5 6 17 -2 24 38 47 81 47 13 0 24 5 24 11 0 12 -57 3 -75 -12 -22 -17 -37 7 -29 47 9 52 26 83 64 119 26 25 33 27 41 15 9 -12 10 -12 5 4 -5 14 -2 17 9 12 9 -3 14 -2 11 3 -16 26 102 28 157 3 36 -16 37 -18 23 -37 -12 -16 -17 -18 -27 -7 -7 6 -18 12 -24 12 -5 0 -2 -5 7 -11 17 -9 17 -12 1 -37 l-17 -27 34 30 c19 17 37 34 41 38 5 7 53 3 92 -9 9 -3 17 -14 17 -24 0 -14 -5 -18 -17 -13 -15 5 -16 3 -5 -8 19 -21 14 -34 -6 -16 -10 10 -27 16 -38 16 -18 -1 -18 -2 1 -6 29 -7 55 -33 56 -57 1 -17 12 30 21 91 1 7 6 11 12 10 6 -1 10 3 9 10 -2 7 4 10 12 7 8 -4 15 -2 15 4 0 11 -18 11 -37 -1 -13 -8 -63 1 -63 12 0 4 6 13 13 21 6 8 3 7 -9 -3 -24 -20 -54 -22 -54 -4 0 19 50 68 62 61 7 -4 8 -2 4 4 -7 11 19 29 63 43 45 13 95 9 139 -11z m-563 -34 c13 -9 16 -19 11 -32 -8 -18 -9 -18 -17 4 -5 12 -16 21 -26 21 -17 -1 -17 -2 0 -6 20 -5 23 -29 3 -36 -15 -6 -36 11 -36 30 0 11 26 32 41 33 3 0 14 -6 24 -14z m1019 -8 c8 -14 7 -21 -6 -34 -9 -9 -21 -13 -27 -10 -17 11 -13 34 7 39 13 4 11 5 -5 6 -18 1 -23 -4 -23 -23 0 -31 -18 -43 -33 -23 -7 8 -21 17 -32 20 -17 4 -17 5 3 6 13 0 36 10 50 21 29 24 50 23 66 -2z m-962 -25 c-13 -3 -26 -11 -29 -19 -3 -8 -9 -14 -14 -14 -6 0 -5 9 1 20 7 13 20 20 38 19 24 -2 25 -2 4 -6z m437 -266 c0 -21 -1 -21 -9 -2 -7 17 -9 17 -9 3 -1 -10 -5 -18 -11 -18 -13 0 -13 6 1 31 12 24 29 16 28 -14z m111 -13 c0 -13 -5 -24 -11 -24 -6 0 -8 9 -4 23 6 21 6 21 -9 3 -12 -15 -16 -16 -16 -5 0 19 20 40 32 33 4 -3 8 -16 8 -30z m504 30 c9 -3 13 -10 10 -15 -3 -5 3 -6 12 -2 13 5 15 3 9 -7 -5 -9 -4 -11 4 -6 15 10 43 -13 34 -27 -3 -5 -1 -7 4 -4 16 10 34 -18 27 -39 -4 -14 -3 -15 4 -6 7 10 12 7 20 -15 26 -70 22 -132 -12 -178 -13 -18 -16 -17 -55 25 -31 33 -40 51 -37 70 2 14 -1 31 -7 38 -7 9 -1 14 22 18 31 6 39 18 22 28 -5 3 -14 -1 -21 -9 -17 -20 -47 -19 -59 3 -6 9 -11 13 -11 9 -1 -23 -30 25 -32 53 -1 17 -6 34 -10 36 -4 3 -8 12 -8 20 0 15 53 20 84 8z m-766 -39 c3 -20 3 -20 -14 0 -16 20 -16 20 -9 -2 3 -13 2 -23 -3 -23 -11 0 -22 36 -14 45 12 12 37 -1 40 -20z m314 19 c9 -8 -3 -44 -14 -44 -5 0 -6 10 -3 23 7 22 7 22 -9 2 -12 -16 -15 -17 -16 -4 0 25 26 40 42 23z m52 -23 c3 -4 -1 -17 -10 -27 -14 -18 -15 -18 -8 6 6 24 6 24 -10 5 -12 -16 -15 -17 -16 -4 0 26 31 41 44 20z m46 -30 c0 -9 -5 -23 -11 -31 -9 -12 -10 -11 -6 8 3 12 1 22 -4 22 -5 0 -9 -4 -9 -10 0 -5 -4 -10 -10 -10 -6 0 -5 9 1 24 12 27 39 25 39 -3z m-1022 5 c-10 -7 -18 -21 -18 -30 0 -9 -4 -16 -10 -16 -5 0 -10 5 -10 12 0 15 30 48 44 48 6 0 3 -7 -6 -14z m885 -6 c110 -34 263 -156 241 -191 -4 -8 -3 -9 5 -5 17 11 70 -108 82 -184 21 -134 -20 -271 -115 -385 -18 -22 -28 -27 -36 -19 -8 8 -1 23 26 55 20 24 41 43 45 42 5 -2 5 5 2 14 -4 11 -3 14 5 9 8 -5 10 -1 5 10 -4 12 -3 15 5 10 8 -5 10 -1 5 10 -5 13 -3 15 7 9 9 -5 11 -4 6 3 -4 6 -1 31 5 54 12 43 19 239 8 233 -9 -6 -31 64 -23 76 5 8 3 9 -6 4 -10 -6 -12 -4 -7 9 5 11 3 15 -5 10 -8 -5 -9 -2 -5 10 4 10 3 15 -3 11 -9 -6 -36 34 -32 48 1 5 -2 6 -7 2 -9 -5 -35 29 -36 47 0 3 -4 10 -9 15 -5 5 -6 3 -2 -4 11 -20 -9 -15 -27 5 -10 10 -14 22 -10 26 4 4 -1 4 -11 0 -15 -6 -17 -4 -11 6 5 8 4 11 -2 7 -6 -4 -37 5 -69 21 -53 24 -70 27 -169 27 -99 0 -116 -3 -169 -27 -32 -16 -62 -25 -67 -22 -5 3 -8 1 -7 -4 2 -5 -14 -23 -35 -40 -21 -17 -52 -48 -69 -69 -17 -21 -34 -37 -39 -36 -4 2 -5 -5 -2 -14 4 -11 3 -14 -5 -9 -8 5 -10 1 -5 -10 5 -13 3 -15 -7 -9 -9 5 -11 4 -6 -4 8 -12 -14 -82 -24 -76 -3 2 -4 -12 -2 -32 4 -27 1 -34 -8 -28 -9 5 -11 4 -6 -3 4 -6 9 -39 11 -72 2 -33 9 -76 15 -95 7 -20 9 -43 6 -51 -4 -10 -2 -13 6 -8 8 5 9 2 5 -10 -5 -11 -3 -15 5 -10 8 5 9 2 5 -10 -5 -11 -3 -15 5 -10 8 5 9 2 5 -9 -3 -9 -3 -16 1 -15 10 3 146 -135 144 -145 -2 -5 2 -6 7 -3 5 3 35 -6 67 -22 53 -24 70 -27 169 -27 99 0 116 3 169 27 32 16 63 25 69 21 5 -3 7 -2 4 4 -3 5 8 20 24 32 23 17 34 20 42 12 9 -9 8 -14 -3 -21 -8 -5 -18 -6 -24 -3 -5 3 -6 1 -2 -5 9 -14 -93 -74 -117 -68 -9 2 -15 1 -12 -4 8 -13 -79 -30 -150 -30 -73 0 -158 18 -149 31 3 5 -2 6 -10 3 -39 -15 -235 138 -222 172 3 9 1 12 -4 9 -17 -10 -71 118 -81 192 -7 47 -6 89 1 135 13 74 64 193 80 183 5 -3 7 0 4 8 -7 18 81 107 140 142 112 66 256 83 379 45z m625 12 c15 -10 25 -52 11 -52 -5 0 -9 7 -9 16 0 9 -8 23 -17 30 -19 14 -6 19 15 6z m-1050 -34 c18 -18 14 -32 -4 -17 -15 12 -16 11 -10 -9 9 -27 0 -29 -14 -2 -17 32 3 53 28 28z m609 -4 c2 -5 -4 -19 -12 -29 -15 -19 -16 -19 -9 5 6 22 5 23 -10 11 -18 -15 -22 -1 -4 17 13 13 30 11 35 -4z m-194 -14 c249 -77 373 -370 256 -603 -98 -195 -333 -286 -537 -209 -161 62 -275 226 -275 397 0 210 139 381 348 428 51 12 148 6 208 -13z m-452 -22 c9 -19 9 -21 -2 -10 -19 17 -34 15 -19 -3 7 -9 11 -18 8 -20 -10 -10 -30 25 -24 40 8 22 23 19 37 -7z m689 -2 c0 -7 -7 -19 -15 -26 -18 -15 -20 1 -3 18 7 7 8 12 2 12 -5 0 -16 -6 -23 -12 -10 -11 -11 -10 -6 5 8 20 45 23 45 3z m-1002 -153 c-12 -15 -11 -15 9 -5 19 11 24 9 33 -8 6 -11 15 -18 20 -15 10 6 60 -15 60 -26 0 -5 6 -6 14 -3 8 3 23 1 33 -5 16 -9 15 -11 -7 -12 -17 -1 -20 -3 -7 -6 9 -2 17 -9 17 -14 0 -13 -13 -11 -39 8 -14 9 -21 11 -17 4 4 -6 2 -19 -5 -27 -14 -17 -21 -61 -13 -86 3 -11 16 -18 32 -19 17 -1 21 -3 10 -6 -10 -2 -18 -8 -18 -13 0 -5 8 -11 18 -13 10 -3 6 -5 -10 -6 -20 -1 -28 4 -29 17 -1 16 -2 16 -6 0 -3 -13 -15 -18 -39 -18 -19 0 -34 -5 -34 -10 0 -6 15 -8 38 -4 37 6 38 5 36 -23 -1 -15 -3 -30 -3 -33 -1 -3 -26 -4 -56 -4 -61 2 -100 21 -111 56 -3 13 -11 26 -16 29 -12 7 37 89 53 89 5 0 8 4 5 8 -3 5 23 7 57 5 33 -2 58 -1 54 4 -7 7 -13 9 -51 16 -10 2 -25 12 -32 22 -17 22 -18 12 -3 -18 9 -20 8 -19 -12 3 -12 14 -20 18 -17 10 3 -9 -1 -25 -9 -35 -15 -19 -15 -19 -10 3 3 12 1 20 -4 17 -4 -3 -11 7 -15 22 -3 15 -7 34 -10 41 -4 15 37 58 51 54 6 -2 7 0 2 4 -4 4 1 16 10 26 15 17 18 17 26 3 5 -10 4 -22 -5 -32z m1306 5 c-3 -5 -2 -7 3 -6 13 5 53 -40 49 -54 -3 -7 -7 -26 -10 -41 -4 -15 -11 -25 -16 -22 -6 4 -7 -1 -3 -11 6 -16 7 -15 20 2 7 10 13 22 13 27 0 5 8 3 18 -4 16 -13 16 -12 -1 7 -23 28 -13 58 14 43 11 -5 17 -14 14 -20 -4 -5 -1 -8 7 -7 7 2 12 -3 11 -9 -2 -7 2 -12 9 -10 23 4 58 -75 58 -133 0 -58 -35 -137 -58 -132 -7 1 -11 -4 -10 -10 2 -7 -3 -12 -10 -10 -8 1 -11 -2 -7 -7 3 -6 -4 -15 -15 -21 -16 -9 -22 -8 -26 5 -4 10 9 32 35 60 22 24 41 50 41 57 0 7 -8 0 -19 -17 -10 -16 -27 -38 -38 -47 -19 -17 -20 -17 -36 17 -15 31 -15 35 -1 35 8 0 13 4 10 8 -3 5 1 20 9 35 12 23 11 31 -6 66 -10 22 -28 43 -40 46 -16 6 -19 12 -14 33 l6 26 -21 -25 c-19 -22 -20 -22 -11 -2 15 30 14 40 -3 18 -7 -10 -19 -19 -27 -21 -8 -1 -25 -7 -39 -13 -23 -10 -22 -11 15 -10 22 1 49 1 60 0 l20 -2 -20 -9 c-12 -5 -14 -9 -6 -9 8 -1 24 -9 35 -18 21 -18 21 -18 2 5 -22 26 -11 30 16 5 10 -9 18 -24 18 -34 0 -9 6 -20 13 -22 8 -4 9 -8 2 -14 -6 -4 -16 -21 -23 -36 -16 -37 -65 -56 -121 -48 -40 6 -44 8 -46 37 -2 31 -2 32 29 23 39 -11 46 -11 46 1 0 6 -16 10 -35 10 -29 0 -35 4 -36 23 -3 85 -6 104 -20 124 -11 15 -19 19 -29 12 -19 -11 -30 -11 -30 0 0 5 8 12 18 14 12 3 9 5 -8 6 -22 1 -23 3 -7 12 10 6 25 8 33 5 8 -3 14 -1 14 3 0 11 56 32 64 24 3 -3 8 2 12 11 9 24 40 19 63 -10 12 -15 21 -23 21 -18 0 4 -11 20 -25 34 -16 16 -23 33 -20 43 6 14 8 14 25 -1 11 -8 17 -19 14 -24z m-1114 -19 c12 -9 11 -10 -7 -6 -27 6 -29 -1 -5 -19 23 -18 1 -18 -23 -1 -10 8 -15 19 -11 25 9 15 26 15 46 1z m936 -1 c7 -11 -21 -38 -40 -38 -6 0 -2 7 8 15 19 15 19 15 -5 15 -19 0 -21 2 -9 10 20 13 37 12 46 -2z m-1207 -98 c17 -51 17 -55 3 -52 -8 1 -11 -1 -8 -6 3 -5 -1 -20 -9 -35 -12 -23 -12 -31 0 -54 8 -15 12 -30 9 -35 -3 -4 2 -8 11 -8 8 0 18 -7 21 -15 4 -8 11 -12 17 -8 6 4 7 -4 3 -22 l-7 -29 21 25 c19 22 20 22 11 2 -17 -33 -13 -38 8 -12 26 33 89 34 111 2 11 -16 20 -19 30 -13 19 12 30 12 30 1 0 -5 -8 -12 -17 -14 -13 -3 -10 -5 7 -6 22 -1 23 -3 7 -12 -10 -6 -25 -8 -33 -5 -8 3 -14 1 -14 -4 0 -8 -38 -23 -62 -25 -4 0 -14 -9 -21 -19 -14 -19 -16 -19 -46 11 -37 38 -42 31 -5 -8 19 -20 24 -32 17 -43 -8 -14 -16 -10 -51 28 l-41 44 14 54 c15 61 13 73 -5 28 -11 -26 -15 -29 -29 -18 -11 9 -10 6 3 -9 24 -29 15 -58 -14 -43 -11 6 -18 15 -15 21 4 5 1 8 -7 7 -7 -2 -12 3 -10 10 1 8 -2 11 -7 8 -13 -8 -34 21 -25 35 4 7 3 9 -3 6 -15 -9 -33 46 -33 99 0 49 8 76 21 68 5 -3 6 3 2 12 -5 13 -3 15 7 9 9 -6 11 -4 5 4 -9 15 33 63 48 54 6 -3 7 -1 3 5 -3 6 2 15 11 21 19 11 18 13 42 -59z m236 0 c3 -5 -2 -10 -12 -11 -10 0 -13 -3 -5 -6 20 -8 14 -22 -8 -16 -30 8 -25 43 6 43 7 0 16 -4 19 -10z m1002 -5 c7 -19 5 -20 -24 -29 -14 -5 -23 -3 -23 3 0 6 8 12 18 12 15 1 14 2 -2 6 -15 4 -16 7 -5 14 20 13 29 11 36 -6z m-1022 -55 c-17 -7 -17 -9 -2 -9 17 -1 25 -21 8 -21 -21 0 -41 13 -41 26 0 9 10 14 28 13 24 0 25 -1 7 -9z m1035 -4 c0 -13 -20 -26 -41 -26 -17 0 -9 20 9 21 14 0 14 2 -3 9 -18 8 -17 9 8 9 17 1 27 -4 27 -13z m-2 -58 c3 -14 -3 -18 -25 -17 -17 1 -21 3 -10 6 9 2 17 8 17 13 0 5 -8 11 -17 14 -11 3 -8 4 7 3 15 -1 26 -9 28 -19z m-1018 -38 c0 -5 -8 -10 -17 -11 -15 0 -15 -2 2 -9 18 -8 17 -9 -7 -9 -44 -1 -35 35 10 38 6 1 12 -3 12 -9z m1004 4 c27 -10 19 -34 -11 -33 -25 0 -26 1 -8 9 17 7 17 9 3 9 -10 1 -18 6 -18 11 0 11 11 13 34 4z m-1010 -65 c-19 -7 -19 -8 1 -8 14 -1 16 -4 8 -12 -15 -15 -43 -4 -43 15 0 8 8 16 18 19 25 5 39 -5 16 -14z m1007 11 c12 0 12 -27 0 -34 -5 -4 -17 -3 -27 1 -16 6 -16 7 2 14 17 7 17 8 2 8 -10 1 -18 6 -18 12 0 6 7 8 16 5 9 -3 20 -6 25 -6z m198 -59 c8 -38 7 -45 -12 -64 -12 -12 -26 -21 -30 -19 -5 1 -6 -2 -3 -6 3 -5 -3 -17 -13 -26 -17 -16 -19 -16 -25 0 -4 11 2 27 19 44 14 14 25 30 25 34 0 5 -9 -3 -21 -18 -22 -28 -54 -34 -62 -12 -3 7 -22 17 -42 20 -28 6 -35 11 -31 23 5 13 4 14 -8 4 -9 -8 -24 -10 -38 -5 l-23 8 25 7 c16 4 19 7 8 8 -10 1 -18 6 -18 11 0 12 6 13 29 0 14 -7 21 -4 31 15 18 35 83 33 111 -3 21 -27 25 -23 8 11 -9 19 -8 19 12 -3 l22 -25 -8 24 c-5 16 -3 26 6 32 17 10 25 -3 38 -60z m-1171 -45 c-24 -18 -22 -25 5 -19 20 4 21 3 3 -7 -14 -10 -24 -9 -42 1 -13 7 -27 9 -31 6 -3 -4 1 -7 10 -7 9 0 21 -10 28 -22 10 -18 8 -24 -12 -40 l-24 -19 28 12 c15 7 27 20 27 31 0 10 2 18 4 18 2 0 13 3 23 6 16 5 16 4 -2 -11 -20 -17 -20 -17 5 -12 24 6 24 6 -5 -21 -17 -15 -26 -24 -19 -19 17 11 25 -30 8 -44 -8 -6 -11 -15 -8 -20 10 -17 -59 -50 -95 -45 -21 3 -31 2 -25 -4 14 -13 63 -20 70 -9 3 5 9 7 14 4 4 -3 10 2 14 10 3 8 13 15 22 15 10 0 14 3 11 7 -12 12 27 32 41 21 9 -8 11 -7 7 4 -8 20 22 45 36 31 7 -7 7 -17 -3 -32 -11 -17 -11 -25 1 -43 12 -20 11 -24 -10 -43 -23 -20 -40 -63 -21 -51 6 3 12 1 14 -6 3 -7 7 -5 11 6 4 10 3 15 -3 11 -16 -10 -12 11 5 25 8 7 15 9 15 5 0 -4 6 -3 13 3 24 21 63 1 58 -30 0 -4 6 -5 14 -2 8 4 15 2 15 -3 0 -13 -35 -45 -42 -38 -2 3 -15 -6 -28 -20 -18 -19 -21 -28 -12 -37 9 -9 15 -4 25 22 9 19 17 28 21 21 11 -17 26 -13 26 7 0 9 7 25 14 35 12 15 15 15 26 2 7 -8 16 -12 21 -9 11 6 11 1 3 -21 -6 -13 -9 -14 -16 -3 -6 9 -7 6 -3 -9 3 -12 1 -31 -4 -42 -9 -16 -7 -24 11 -43 13 -13 17 -17 11 -8 -16 20 -16 38 -2 77 8 23 18 32 39 35 16 3 33 1 38 -4 5 -5 7 6 4 23 -3 21 -1 30 6 25 6 -4 9 -14 6 -24 -5 -14 -3 -14 10 2 16 20 16 20 16 0 0 -12 -3 -24 -7 -28 -11 -11 -14 -46 -3 -46 6 0 10 8 10 19 0 14 6 17 25 13 14 -2 25 -11 26 -21 0 -12 2 -11 9 4 4 11 6 30 3 43 -3 12 0 22 6 22 6 0 12 -8 12 -17 1 -17 2 -17 6 0 7 27 21 20 15 -8 -3 -17 0 -25 10 -25 10 0 14 9 12 33 -3 29 -3 30 5 7 9 -24 9 -24 10 -2 2 39 18 24 25 -23 4 -25 11 -45 15 -45 4 0 4 -24 -1 -52 -4 -29 -9 -58 -10 -65 -1 -7 -6 -11 -12 -10 -6 1 -10 -3 -9 -10 2 -7 -4 -10 -12 -7 -11 5 -15 -2 -15 -25 0 -17 4 -31 9 -31 4 0 6 12 3 27 -2 16 -1 25 3 21 5 -4 14 -3 21 3 12 10 64 3 64 -9 0 -3 -12 -20 -27 -36 -28 -31 -27 -31 7 2 20 17 44 32 54 32 9 0 14 5 11 10 -3 6 -17 10 -30 10 -36 0 -55 10 -55 31 0 13 5 17 18 12 14 -5 15 -3 5 8 -19 20 -16 33 5 18 16 -13 16 -13 -1 7 -9 11 -17 32 -16 45 0 13 -2 33 -5 44 -20 74 -20 72 -1 50 13 -16 16 -17 11 -3 -3 10 0 20 6 24 7 5 9 -3 6 -24 -3 -20 -1 -29 6 -24 16 9 59 2 69 -12 5 -6 7 -2 4 12 -3 12 -2 20 3 17 4 -2 16 5 26 16 15 17 16 24 6 40 -7 11 -8 19 -2 19 5 0 10 -4 10 -10 0 -5 4 -10 9 -10 5 0 7 10 4 23 -4 18 -3 19 6 7 14 -20 14 -47 -1 -52 -8 -3 -6 -7 5 -11 9 -3 16 -3 16 1 -5 33 35 51 61 27 8 -7 19 -14 25 -14 5 0 11 -5 14 -12 2 -7 -1 -9 -9 -4 -9 6 -9 3 -1 -13 6 -11 12 -33 12 -49 2 -26 2 -25 9 7 l7 35 2 -33 c0 -18 -3 -42 -9 -52 -7 -14 -5 -24 10 -42 11 -12 19 -17 20 -10 0 6 -5 12 -11 12 -8 0 -9 12 -4 38 4 20 7 45 7 54 -1 11 9 18 26 21 24 4 24 4 -5 6 -21 0 -33 6 -33 15 0 8 -6 21 -12 28 -37 38 -40 46 -26 67 10 17 10 25 0 41 -16 27 -15 35 3 20 13 -11 14 -10 8 6 -6 17 -5 17 11 5 9 -8 14 -21 11 -30 -3 -9 3 -6 14 7 11 12 22 18 25 13 4 -5 0 -11 -6 -14 -10 -3 -10 -7 1 -20 14 -18 46 -24 36 -7 -4 6 -12 7 -18 3 -8 -5 -8 -2 1 9 10 12 10 18 -2 27 -15 13 -11 41 5 41 5 0 18 -9 30 -21 13 -13 25 -17 30 -12 6 6 -10 20 -42 36 -58 31 -66 33 -49 12 7 -8 10 -22 6 -30 -4 -13 -10 -14 -26 -5 -11 6 -20 15 -20 21 0 6 9 5 23 -2 19 -11 20 -10 9 3 -18 23 -5 50 22 42 21 -6 21 -6 1 10 -21 16 -17 20 9 10 9 -3 16 -14 16 -23 0 -10 12 -23 28 -30 l27 -12 -24 19 c-20 16 -22 22 -12 40 7 12 19 22 29 22 15 0 15 2 2 11 -12 8 -9 9 10 4 14 -4 33 -7 42 -8 9 -1 15 -4 12 -8 -2 -4 3 -10 12 -13 8 -3 12 -11 8 -17 -4 -8 -3 -9 4 -5 14 9 32 -25 32 -61 0 -31 -24 -73 -42 -73 -6 0 -3 10 8 22 l19 22 -27 -20 c-14 -10 -22 -20 -17 -22 4 -2 3 -9 -4 -16 -6 -8 -18 -11 -24 -9 -7 3 -13 0 -13 -7 0 -6 5 -8 10 -5 13 8 13 -17 -2 -64 -10 -32 -19 -41 -50 -52 -21 -7 -45 -12 -53 -12 -8 0 -15 -3 -15 -7 0 -12 70 -5 74 7 3 7 13 10 22 6 18 -7 16 -42 -6 -98 -9 -24 -13 -27 -21 -15 -8 12 -9 10 -5 -6 9 -29 -50 -86 -65 -64 -9 12 -10 12 -5 -4 5 -14 2 -17 -9 -12 -9 3 -14 2 -11 -3 16 -25 -104 -27 -157 -3 -36 16 -37 18 -23 37 12 16 17 18 27 8 7 -7 18 -13 24 -13 5 0 2 5 -8 11 -18 10 -18 12 -1 30 9 11 15 21 13 24 -6 6 -89 -75 -89 -87 0 -5 -5 -6 -12 -2 -7 4 -8 3 -4 -5 9 -14 -12 -43 -25 -35 -5 3 -8 0 -7 -8 2 -7 -3 -12 -10 -10 -8 1 -11 -2 -7 -8 9 -15 -73 -50 -120 -50 -47 0 -129 35 -120 50 4 6 1 9 -7 8 -7 -2 -12 3 -10 10 1 8 -2 11 -7 8 -13 -8 -34 21 -25 35 4 8 3 9 -4 5 -7 -4 -12 -3 -12 2 0 12 -83 93 -89 87 -2 -3 3 -13 12 -23 10 -10 14 -22 10 -27 -5 -4 -3 -5 4 -2 6 4 19 -1 29 -10 16 -17 15 -18 -22 -35 -64 -29 -168 -22 -157 10 4 13 3 14 -5 3 -23 -32 -104 52 -122 129 -10 44 -10 54 1 61 9 5 18 4 24 -4 11 -14 75 -21 75 -9 0 5 -7 9 -15 9 -8 0 -32 5 -54 13 -32 10 -39 17 -36 36 1 13 -2 21 -6 18 -5 -2 -13 10 -18 28 l-10 33 2 -33 c1 -19 5 -36 9 -38 4 -3 8 -12 8 -20 0 -9 -11 -14 -34 -14 -42 0 -68 9 -60 21 3 5 -3 6 -12 2 -13 -5 -15 -3 -9 7 6 9 4 11 -4 5 -8 -4 -24 4 -43 21 -67 65 -83 182 -34 249 13 18 15 17 52 -21 25 -26 39 -50 40 -71 1 -17 7 -41 14 -53 9 -16 9 -25 -1 -36 -6 -8 -9 -17 -6 -20 3 -3 10 4 17 15 6 13 16 19 23 14 6 -4 2 6 -11 21 -24 31 -29 75 -11 107 5 11 15 16 21 13 7 -4 8 -3 4 5 -4 6 0 14 8 17 9 3 13 11 9 17 -3 5 -2 7 4 4 6 -4 35 2 64 12 66 23 79 24 57 7z m938 0 c15 -12 16 -17 7 -27 -10 -10 -17 -10 -35 0 l-23 12 23 -5 c26 -5 28 2 5 20 -10 7 -13 14 -7 14 5 0 19 -6 30 -14z m270 -48 c9 -17 17 -53 17 -78 1 -53 -20 -113 -36 -103 -6 3 -7 1 -3 -6 10 -15 -13 -43 -27 -34 -5 3 -7 1 -4 -4 9 -14 -19 -37 -34 -27 -7 4 -9 3 -5 -4 8 -13 -29 -26 -45 -16 -8 4 -9 3 -5 -4 5 -8 -4 -12 -28 -12 -25 0 -36 5 -36 14 0 8 4 17 8 20 4 2 9 19 10 37 2 21 12 41 30 56 31 27 54 29 72 8 7 -8 16 -12 21 -9 17 10 9 22 -22 28 -21 4 -28 10 -22 18 4 7 8 27 8 43 1 20 13 42 35 67 19 20 38 37 42 37 4 1 15 -13 24 -31z m-1166 -53 c-15 -18 1 -20 18 -3 25 25 11 -5 -15 -33 -30 -31 -57 -41 -31 -11 9 9 13 23 11 30 -5 14 16 46 25 37 3 -2 -1 -11 -8 -20z m70 -80 c-15 -18 1 -20 18 -3 9 9 12 9 12 -1 0 -7 5 -9 11 -5 8 4 9 -1 4 -17 -7 -21 -6 -22 9 -10 9 7 16 9 16 3 0 -15 -28 -34 -40 -27 -6 4 -8 15 -5 25 4 14 1 16 -20 12 -27 -5 -35 14 -13 36 16 16 24 6 8 -13z m707 -19 c-4 -9 -13 -13 -22 -10 -9 4 -15 0 -15 -9 0 -9 -5 -19 -10 -22 -12 -8 -40 12 -40 27 0 6 8 4 17 -3 15 -12 16 -12 10 5 -6 14 -4 17 9 12 12 -5 15 -2 10 11 -6 15 -5 16 5 6 7 -7 18 -13 23 -13 6 0 5 5 -2 12 -7 7 -12 17 -12 22 0 6 7 3 16 -6 9 -9 14 -23 11 -32z m-1179 -18 c2 -9 -5 -18 -15 -21 -15 -4 -14 -5 4 -6 12 0 24 5 27 12 3 6 5 3 3 -8 -5 -39 -67 -25 -67 15 0 31 42 37 48 8z m52 -14 c0 -9 8 -23 18 -30 9 -7 12 -14 5 -14 -12 0 -43 38 -43 52 0 5 5 8 10 8 6 0 10 -7 10 -16z m507 -5 c-4 -17 -3 -19 6 -10 18 18 29 13 17 -9 -21 -40 -50 -19 -34 24 9 24 17 19 11 -5z m1043 7 c0 -16 -26 -46 -41 -46 -5 0 -9 5 -9 10 0 6 7 10 15 10 8 0 15 9 15 20 0 11 5 20 10 20 6 0 10 -6 10 -14z m-995 -38 c-7 -23 -7 -23 9 -3 13 17 15 18 16 3 0 -21 -16 -32 -36 -24 -12 4 -13 10 -4 26 14 27 23 25 15 -2z m436 -21 c-14 -14 -41 0 -41 20 1 16 2 16 16 -2 16 -19 16 -19 10 5 -7 24 -6 24 9 6 9 -13 12 -23 6 -29z m-386 1 c-7 -23 -7 -23 9 -3 17 20 17 20 14 0 -2 -11 -11 -21 -21 -23 -12 -3 -17 3 -17 22 0 14 5 26 11 26 6 0 8 -9 4 -22z m335 -4 c0 -19 -5 -25 -17 -22 -10 2 -19 12 -21 23 -3 20 -3 20 14 0 16 -20 16 -20 9 3 -4 13 -2 22 4 22 6 0 11 -12 11 -26z m-218 -14 c5 25 5 25 7 -2 1 -22 -4 -28 -19 -28 -13 0 -20 7 -20 18 0 29 14 36 21 10 l6 -23 5 25z m-408 -255 c3 -8 16 -16 28 -16 22 -2 22 -2 -2 -6 -13 -3 -35 -14 -49 -24 -31 -25 -48 -24 -62 2 -9 17 -8 25 4 36 8 9 20 12 26 9 17 -11 13 -34 -6 -39 -17 -4 -17 -5 0 -6 10 0 20 6 22 14 3 8 7 22 10 30 2 8 9 15 14 15 5 0 11 -7 15 -15z m914 -5 c-8 -12 -23 -19 -38 -19 -24 2 -24 2 -2 6 13 3 26 11 29 19 3 8 9 14 14 14 5 0 4 -9 -3 -20z m76 -14 c9 -13 7 -20 -8 -32 -24 -17 -28 -17 -51 0 -13 9 -16 18 -10 32 8 18 9 17 12 -3 3 -16 11 -23 26 -22 17 1 18 2 5 6 -18 5 -24 24 -11 37 10 9 25 2 37 -18z m-546 -148 c4 -20 -26 -50 -46 -46 -8 2 -20 11 -26 20 -13 22 5 44 29 34 15 -5 15 -9 4 -23 -12 -14 -12 -16 1 -11 8 3 15 15 14 27 -1 24 19 23 24 -1z m38 1 c-1 -12 6 -24 14 -27 13 -5 13 -3 1 11 -11 14 -11 18 4 23 9 4 21 2 27 -4 13 -13 4 -40 -18 -49 -21 -8 -59 30 -51 51 9 23 24 20 23 -5z"></path><path id="p3qQ57sz3" d="M1116 1893 c8 -34 14 -42 14 -20 0 8 3 22 6 31 4 11 1 16 -10 16 -13 0 -15 -6 -10 -27z"></path><path id="pOirZh0aN" d="M778 1843 c12 -2 30 -2 40 0 9 3 -1 5 -23 4 -22 0 -30 -2 -17 -4z"></path><path id="pEy8MAu66" d="M1428 1843 c12 -2 32 -2 45 0 12 2 2 4 -23 4 -25 0 -35 -2 -22 -4z"></path><path id="pUFDcUplD" d="M697 1808 c-18 -18 -21 -23 -7 -12 14 12 34 26 45 32 11 6 14 12 7 12 -7 0 -27 -15 -45 -32z"></path><path id="p11MUdNxq0" d="M1506 1834 c7 -3 10 -14 7 -24 -3 -12 0 -20 7 -20 7 0 10 7 6 15 -8 21 4 19 34 -7 14 -13 11 -8 -7 10 -18 17 -38 32 -45 31 -9 0 -9 -2 -2 -5z"></path><path id="p2i1ktQys" d="M720 1802 c0 -5 9 -17 20 -27 19 -18 19 -18 1 -35 -20 -16 -37 -64 -33 -87 2 -6 -10 -14 -25 -16 -26 -4 -26 -4 5 -6 30 -1 32 1 32 32 0 34 23 77 42 77 6 0 3 -10 -8 -22 l-19 -22 26 20 c17 12 23 22 16 26 -17 10 39 21 65 12 13 -4 27 -7 32 -5 5 1 4 -4 -3 -13 -8 -10 -9 -16 -1 -21 5 -3 13 2 17 12 3 10 15 29 27 43 l21 25 -24 -20 c-23 -19 -57 -22 -75 -5 -5 5 -15 6 -23 3 -9 -4 -16 2 -20 16 -6 25 -24 28 -20 4 3 -26 -16 -29 -28 -4 -10 21 -25 29 -25 13z"></path><path id="pkofv9EWT" d="M1118 1740 c2 -16 5 -30 7 -30 2 0 5 14 7 30 3 19 0 30 -7 30 -7 0 -10 -11 -7 -30z"></path><path id="pv986fQIk" d="M950 1729 c0 -13 7 -33 15 -43 14 -19 15 -18 15 11 0 17 -7 36 -15 43 -13 10 -15 9 -15 -11z"></path><path id="pWMiJd760" d="M1091 1705 c1 -40 1 -40 10 -10 5 18 5 33 -1 39 -7 7 -10 -4 -9 -29z"></path><path id="pHQJkHMy3" d="M1140 1726 c0 -8 5 -18 10 -21 6 -3 10 3 10 14 0 12 -4 21 -10 21 -5 0 -10 -6 -10 -14z"></path><path id="palLSki0o" d="M1277 1733 c-4 -3 -7 -20 -7 -37 0 -28 1 -29 15 -10 23 31 16 72 -8 47z"></path><path id="prZ88ENfd" d="M785 1700 c-7 -12 34 -64 43 -55 3 3 17 -5 31 -17 14 -13 20 -16 14 -8 -7 8 -13 22 -13 32 0 21 -11 23 -28 6 -9 -9 -12 -7 -12 9 0 26 -25 49 -35 33z"></path><path id="pmaNVlGbY" d="M1435 1680 c-5 -23 -10 -29 -18 -21 -17 17 -24 13 -30 -14 -4 -25 -4 -25 16 -8 20 17 20 17 13 -2 -4 -12 5 -5 21 15 30 38 34 51 16 57 -6 2 -14 -10 -18 -27z"></path><path id="p1GdmNmiGK" d="M730 1661 c0 -17 4 -32 8 -35 4 -2 6 11 4 30 -5 42 -12 45 -12 5z"></path><path id="p1BBOypiAL" d="M790 1631 c0 -5 6 -14 14 -20 12 -10 13 -8 9 8 -5 21 -23 30 -23 12z"></path><path id="pIGOa1WhM" d="M1437 1619 c-4 -16 -3 -18 9 -8 16 13 19 29 5 29 -5 0 -11 -9 -14 -21z"></path><path id="p2uoj0GyG" d="M1571 1637 c2 -2 18 -11 34 -21 l30 -17 -24 20 c-13 12 -28 21 -34 21 -6 0 -8 -1 -6 -3z"></path><path id="p95rR5duy" d="M444 1558 l-29 -33 33 29 c17 17 32 31 32 33 0 8 -8 1 -36 -29z"></path><path id="pZXu8ArLA" d="M670 1562 c0 -11 11 -24 25 -30 29 -13 32 -6 9 26 -18 27 -34 29 -34 4z"></path><path id="pCoFVftTA" d="M1546 1558 c-9 -12 -16 -26 -16 -31 0 -13 39 12 50 33 15 29 -14 27 -34 -2z"></path><path id="pmPTgeHgZ" d="M576 1542 c-4 -3 11 -11 31 -18 24 -9 41 -10 47 -4 7 7 6 10 -2 11 -14 2 -31 6 -34 9 -8 5 -37 7 -42 2z"></path><path id="pCHjWMYp6" d="M655 1500 c4 -6 12 -7 18 -3 8 5 8 2 -1 -9 -10 -12 -9 -18 3 -28 8 -7 12 -17 8 -23 -3 -6 -1 -7 6 -3 9 6 9 11 1 21 -8 10 -7 14 2 17 10 4 10 8 -1 21 -14 18 -46 24 -36 7z"></path><path id="p2BcrpMyB" d="M545 1460 c-9 -15 2 -27 30 -33 l26 -4 -22 23 c-26 27 -26 27 -34 14z"></path><path id="p18qHVaB8n" d="M1668 1446 c-17 -24 -17 -24 10 -17 15 4 27 13 27 21 0 23 -19 21 -37 -4z"></path><path id="pAIcifF9P" d="M607 1454 c-9 -10 2 -24 18 -24 9 0 12 6 9 15 -6 16 -17 19 -27 9z"></path><path id="p9o7cej17" d="M1620 1445 c-10 -12 -10 -15 3 -15 19 0 31 16 18 24 -5 3 -14 -1 -21 -9z"></path><path id="plfPY80gW" d="M673 1408 c24 -22 44 -24 27 -3 -7 9 -15 13 -18 10 -3 -3 -10 -1 -17 3 -6 4 -2 -1 8 -10z"></path><path id="pwZNnpceV" d="M582 1398 c2 -6 15 -15 28 -20 23 -9 23 -8 5 12 -20 22 -39 27 -33 8z"></path><path id="pbJEaY1uI" d="M1755 1588 c11 -6 31 -20 45 -32 14 -11 11 -6 -7 12 -18 17 -38 32 -45 32 -7 0 -4 -6 7 -12z"></path><path id="p12LvWvDE9" d="M485 1320 c-26 -28 -15 -31 12 -3 12 13 19 23 14 23 -4 0 -16 -9 -26 -20z"></path><path id="pmEfJl6KN" d="M506 1291 c-9 -13 17 -30 42 -28 27 2 27 6 5 23 -21 16 -40 18 -47 5z"></path><path id="p19HpYm2QI" d="M512 1149 c2 -6 7 -10 11 -10 4 1 15 1 25 1 14 0 15 2 2 10 -20 13 -43 13 -38 -1z"></path><path id="pKqCudEAT" d="M455 1130 c-7 -11 2 -30 13 -30 4 0 14 5 22 10 13 9 13 11 0 20 -19 12 -27 12 -35 0z"></path><path id="p2u7PQJNi" d="M1753 1317 c12 -13 24 -22 26 -20 6 4 -30 43 -40 43 -5 0 2 -10 14 -23z"></path><path id="pXNZbwukI" d="M1697 1286 c-18 -14 -17 -15 3 -21 22 -7 54 11 44 26 -8 13 -26 11 -47 -5z"></path><path id="p6PPPXpY7" d="M1706 1151 c-3 -5 0 -11 8 -14 15 -6 26 1 26 15 0 11 -27 10 -34 -1z"></path><path id="pbH6qhLkB" d="M1933 1120 c0 -25 2 -35 4 -22 2 12 2 32 0 45 -2 12 -4 2 -4 -23z"></path><path id="p1Dn2ASReO" d="M1760 1130 c-13 -9 -13 -11 0 -20 19 -12 35 -8 35 10 0 18 -16 22 -35 10z"></path><path id="p13gXAKjz1" d="M1865 1080 c3 -5 13 -10 21 -10 8 0 12 5 9 10 -3 6 -13 10 -21 10 -8 0 -12 -4 -9 -10z"></path><path id="p1AiIqxLpP" d="M354 1228 l-29 -33 33 29 c30 28 37 36 29 36 -2 0 -16 -15 -33 -32z"></path><path id="pvGlfTvJm" d="M313 1120 c0 -25 2 -35 4 -22 2 12 2 32 0 45 -2 12 -4 2 -4 -23z"></path><path id="pKnLUeJtk" d="M330 1120 c0 -5 7 -10 15 -10 8 0 15 5 15 10 0 6 -7 10 -15 10 -8 0 -15 -4 -15 -10z"></path><path id="pvYOby1KH" d="M320 1063 c0 -6 9 -21 21 -34 l20 -24 -17 30 c-24 39 -24 40 -24 28z"></path><path id="pkB1bENQr" d="M511 966 c-18 -21 6 -31 35 -15 13 7 24 15 24 19 0 12 -48 9 -59 -4z"></path><path id="pPdTUJ9S8" d="M470 941 c0 -10 39 -46 43 -40 2 2 -7 14 -20 26 -13 12 -23 19 -23 14z"></path><path id="pwLJHiZvW" d="M1693 958 c24 -19 43 -23 51 -9 9 14 -17 29 -46 28 l-28 -2 23 -17z"></path><path id="p19635C0Q" d="M1753 923 c-12 -13 -19 -23 -14 -23 10 0 46 39 40 43 -2 2 -14 -7 -26 -20z"></path><path id="pUu2V1b1I" d="M603 860 c-13 -5 -23 -14 -23 -20 0 -16 15 -12 35 10 20 22 20 23 -12 10z"></path><path id="pTnJmR4sU" d="M1635 850 c20 -22 39 -27 33 -8 -2 6 -15 15 -28 20 -23 9 -23 8 -5 -12z"></path><path id="pCQW3GGxC" d="M501 809 c-1 -27 32 -79 51 -79 6 0 0 8 -12 18 -12 9 -25 33 -30 52 -7 30 -8 31 -9 9z"></path><path id="p17x0u0za7" d="M575 813 c-29 -7 -41 -21 -29 -33 7 -7 18 -2 34 15 13 14 22 24 19 24 -2 -1 -13 -3 -24 -6z"></path><path id="pQLD8jVKR" d="M1671 794 c14 -15 26 -21 32 -15 13 13 1 28 -28 34 l-26 4 22 -23z"></path><path id="prA1yJgb8" d="M605 801 c-10 -17 12 -21 25 -6 10 12 10 15 -3 15 -9 0 -18 -4 -22 -9z"></path><path id="py8tkUTTc" d="M453 743 c-23 -4 -30 -17 -14 -27 4 -3 16 3 26 14 10 11 16 19 14 19 -2 -1 -14 -4 -26 -6z"></path><path id="pJFnJwjn4" d="M1595 720 c-3 -5 -1 -10 4 -10 21 0 26 -2 39 -12 8 -7 12 -7 12 0 0 6 -9 16 -19 22 -24 12 -28 13 -36 0z"></path><path id="p9OMloLNf" d="M457 673 c18 -18 38 -33 45 -33 7 0 4 6 -7 12 -11 6 -31 20 -45 32 -14 11 -11 6 7 -11z"></path><path id="pPwCsuBb9" d="M683 703 c-16 -6 -17 -46 -1 -41 6 2 18 14 26 26 15 23 6 28 -25 15z"></path><path id="p1ETDrDeRS" d="M1542 688 c18 -26 38 -35 38 -16 0 18 -20 38 -38 38 -12 0 -12 -3 0 -22z"></path><path id="pS3FcluE5" d="M802 628 c-14 -14 -16 -28 -3 -28 5 0 11 9 14 20 6 23 5 24 -11 8z"></path><path id="pF2FFdpJZ" d="M1437 621 c3 -12 9 -21 14 -21 14 0 11 16 -5 29 -12 10 -13 8 -9 -8z"></path><path id="pURkJjhge" d="M1378 620 c6 -8 12 -22 12 -32 0 -10 5 -18 10 -18 18 0 11 26 -12 46 -13 10 -17 12 -10 4z"></path><path id="p15lQNXYmJ" d="M1428 582 c9 -24 22 -43 27 -43 16 2 12 14 -18 51 l-28 35 19 -43z"></path><path id="pUQL9FvTP" d="M683 603 c15 -2 27 -10 25 -16 -4 -20 12 -68 27 -83 23 -24 27 -15 6 12 -12 15 -21 41 -21 60 0 32 -2 34 -32 33 -31 -2 -31 -2 -5 -6z"></path><path id="p13yHWjvWC" d="M1119 527 c-2 -35 0 -57 6 -57 6 0 9 18 7 43 -5 71 -8 75 -13 14z"></path><path id="p1Au7dexci" d="M963 551 c-16 -25 -17 -51 -3 -51 14 0 22 23 18 50 -3 21 -3 21 -15 1z"></path><path id="p67E2zjm0" d="M1147 541 c-4 -19 -5 -36 -2 -39 10 -11 16 7 13 40 l-3 33 -8 -34z"></path><path id="pH3Mua4Vp" d="M1270 543 c0 -17 7 -36 15 -43 13 -10 15 -9 15 11 0 13 -7 33 -15 43 -14 19 -15 18 -15 -11z"></path><path id="p4Hrc6gt2" d="M1337 542 c4 -24 1 -38 -13 -55 -17 -19 -17 -20 -1 -8 30 24 36 44 21 71 -13 25 -13 25 -7 -8z"></path><path id="p19gpqQLnd" d="M1021 526 c0 -11 -9 -29 -18 -40 -17 -20 -17 -20 0 -7 19 15 23 1 5 -18 -11 -10 -10 -11 5 -6 13 6 17 2 17 -14 0 -20 -14 -28 -63 -35 -24 -3 -34 -16 -12 -16 10 0 28 -8 39 -17 20 -17 20 -17 7 0 -17 22 -13 26 34 34 31 5 37 3 30 -8 -5 -8 -5 -11 0 -7 4 4 15 4 24 -1 9 -4 27 -5 41 0 24 7 24 7 -5 8 -17 1 -40 8 -51 16 -12 8 -23 12 -26 10 -3 -3 -5 1 -6 8 -8 55 -20 108 -21 93z"></path><path id="p1FFPUh3rf" d="M1042 510 c0 -19 2 -27 5 -17 2 9 2 25 0 35 -3 9 -5 1 -5 -18z"></path><path id="p11tXXJ6Jn" d="M1090 521 c0 -12 5 -21 10 -21 6 0 10 6 10 14 0 8 -4 18 -10 21 -5 3 -10 -3 -10 -14z"></path><path id="pqwrOSh07" d="M1202 510 c0 -19 2 -27 5 -17 2 9 2 25 0 35 -3 9 -5 1 -5 -18z"></path><path id="p18GJ3wi9f" d="M869 523 c-1 -4 -1 -11 0 -16 1 -4 -10 -12 -24 -17 -14 -5 -25 -14 -25 -19 0 -5 11 -4 25 2 14 7 25 16 25 21 0 5 7 3 15 -4 18 -15 20 -34 3 -24 -7 4 -10 3 -5 -1 4 -5 16 -9 27 -10 20 -2 20 -2 0 20 -11 12 -20 26 -20 33 0 13 -19 27 -21 15z"></path><path id="p1EcZ2j2oY" d="M1355 498 c-9 -18 -11 -28 -5 -22 17 17 102 -5 108 -28 2 -10 9 -18 14 -18 5 0 7 9 3 19 -11 34 15 34 29 -1 11 -25 11 -35 3 -41 -8 -6 -8 -7 2 -5 23 6 22 41 -1 65 -12 13 -16 23 -10 23 7 0 12 4 12 9 0 5 -14 3 -31 -6 -18 -9 -41 -13 -57 -9 -15 4 -33 7 -39 8 -9 1 -10 5 -2 14 6 8 6 14 0 18 -5 4 -17 -8 -26 -26z"></path><path id="pCrE4uspE" d="M773 460 c0 -36 8 -38 23 -6 10 22 3 36 -20 36 -2 0 -3 -13 -3 -30z"></path><path id="p14kcpL6rg" d="M737 462 c-19 -20 -22 -32 -9 -32 5 0 14 11 20 25 14 30 11 31 -11 7z"></path><path id="p1GFzEqkJG" d="M788 393 c12 -2 30 -2 40 0 9 3 -1 5 -23 4 -22 0 -30 -2 -17 -4z"></path><path id="pQM9Gws3Y" d="M1433 393 c9 -2 25 -2 35 0 9 3 1 5 -18 5 -19 0 -27 -2 -17 -5z"></path><path id="pUVNOV95L" d="M1120 367 c0 -8 -3 -22 -6 -31 -4 -11 -1 -16 10 -16 13 0 15 6 10 28 -8 33 -14 41 -14 19z"></path><path id="pNpsQKpwt" d="M1809 693 c-8 -9 -27 -24 -44 -35 -16 -10 -24 -18 -17 -18 12 0 93 69 81 70 -4 0 -13 -7 -20 -17z"></path><path id="poQxnB2Nc" d="M1662 2067 c-7 -8 -9 -16 -6 -19 3 -3 -9 -16 -25 -28 -33 -23 -35 -28 -22 -49 8 -12 12 -12 25 -2 9 8 16 22 16 33 0 10 7 30 16 44 18 27 14 43 -4 21z"></path><path id="pq3d7iyyR" d="M860 2046 c0 -7 6 -19 14 -25 11 -9 15 -7 19 8 3 11 2 22 -1 25 -11 11 -32 6 -32 -8z"></path><path id="pDPFjRy6Z" d="M1356 2051 c-4 -5 -3 -16 0 -25 5 -13 9 -14 20 -5 8 6 14 18 14 25 0 16 -26 19 -34 5z"></path><path id="pupbv0ffe" d="M598 2010 c5 -38 30 -60 43 -39 13 21 11 26 -19 48 l-28 20 4 -29z"></path><path id="pV04rYBDt" d="M924 2004 c3 -9 6 -32 6 -51 0 -49 6 -39 12 20 4 37 2 47 -9 47 -10 0 -13 -6 -9 -16z"></path><path id="pJkYr6QW5" d="M1300 2008 c0 -17 20 -47 20 -31 0 6 3 18 6 27 4 11 1 16 -10 16 -9 0 -16 -6 -16 -12z"></path><path id="p1FAs1yWr5" d="M830 1987 c0 -8 7 -18 16 -21 11 -4 14 -1 12 11 -4 21 -28 30 -28 10z"></path><path id="pw0MO3AA0" d="M1390 1985 c0 -9 -7 -30 -16 -48 -20 -39 -14 -34 20 16 30 44 31 47 11 47 -8 0 -15 -7 -15 -15z"></path><path id="p3QSPWjzF" d="M1777 1792 l-14 -29 29 11 c16 6 27 17 26 25 -5 26 -26 22 -41 -7z"></path><path id="pqI0JNJJE" d="M430 1796 c0 -13 20 -26 40 -26 4 0 6 9 3 20 -6 22 -43 28 -43 6z"></path><path id="puefdhvBz" d="M500 1802 c0 -5 9 -17 20 -27 20 -18 21 -18 12 5 -9 24 -32 40 -32 22z"></path><path id="pIfRnMGsM" d="M1720 1795 c0 -9 -7 -28 -17 -43 -12 -20 -9 -18 14 8 29 33 33 50 12 50 -5 0 -9 -7 -9 -15z"></path><path id="p3gfUtO8m" d="M442 1728 c2 -6 15 -15 28 -20 23 -9 23 -8 5 12 -20 22 -39 27 -33 8z"></path><path id="pPR79Lmkm" d="M175 1660 c3 -5 12 -10 20 -10 7 0 22 -11 33 -25 25 -31 63 -35 55 -5 -3 11 -13 20 -22 20 -9 0 -29 7 -45 15 -33 17 -50 19 -41 5z"></path><path id="pqAHLxYMf" d="M1994 1643 c-12 -2 -24 -13 -27 -24 -8 -29 37 -25 57 6 17 26 15 27 -30 18z"></path><path id="plvNUj44H" d="M250 1402 c0 -4 15 -13 33 -20 l32 -12 -25 20 c-27 21 -40 25 -40 12z"></path><path id="pd1xvD5dg" d="M1965 1399 c-5 -5 -19 -16 -30 -24 -14 -10 -7 -9 22 3 24 9 43 20 43 25 0 10 -23 8 -35 -4z"></path><path id="pcJsAx56L" d="M191 1381 c-23 -14 -2 -31 37 -30 20 0 30 3 22 6 -8 3 -22 12 -30 19 -9 8 -21 10 -29 5z"></path><path id="p8AhmyYBW" d="M2031 1377 c-6 -6 -11 -15 -11 -20 0 -12 43 -4 47 9 5 16 -22 25 -36 11z"></path><path id="p14WWeoMnc" d="M2003 1323 c-20 -7 -15 -23 7 -23 11 0 20 4 20 9 0 13 -12 19 -27 14z"></path><path id="pNMITVP4s" d="M222 1309 c2 -6 7 -10 11 -10 4 1 19 1 35 2 24 0 25 1 7 9 -29 12 -57 12 -53 -1z"></path><path id="pCbCr4MRN" d="M154 1183 c-4 -15 -2 -34 5 -46 9 -14 10 -22 2 -30 -29 -29 1 -90 38 -80 26 7 38 46 35 110 -3 65 -8 73 -44 73 -24 0 -31 -5 -36 -27z m62 6 c12 -19 -13 -34 -32 -18 -15 12 -17 12 -12 -1 3 -8 17 -15 32 -15 14 1 25 -4 23 -10 -6 -16 -49 -12 -60 6 -6 9 -7 24 -4 33 7 18 42 22 53 5z m7 -92 c3 -8 -4 -13 -21 -12 -14 0 -27 -7 -30 -15 -5 -13 -3 -13 12 -1 21 17 48 -1 29 -20 -16 -16 -47 -7 -51 14 -7 36 48 67 61 34z"></path><path id="p19IRftn06" d="M2024 1198 c-11 -18 -8 -148 3 -159 6 -6 23 -9 39 -7 23 2 30 9 32 31 2 16 -2 34 -8 42 -8 10 -8 18 1 33 7 11 9 30 5 45 -5 22 -12 27 -36 27 -16 0 -32 -5 -36 -12z m64 -21 c7 -36 -48 -67 -61 -34 -3 8 4 13 21 12 14 0 27 7 30 15 5 13 3 13 -12 1 -19 -16 -44 -1 -31 19 10 17 49 8 53 -13z m-8 -82 c26 -31 -14 -75 -43 -46 -19 19 8 37 29 20 15 -12 17 -12 12 1 -3 8 -17 15 -31 15 -27 -1 -33 5 -20 18 11 12 40 8 53 -8z"></path><path id="p7enMOOSs" d="M88 1133 c-28 -7 -21 -21 13 -28 33 -7 56 5 45 24 -7 11 -27 12 -58 4z"></path><path id="pR29JX6dq" d="M2105 1130 c-12 -20 11 -32 45 -25 35 8 30 20 -11 30 -16 4 -30 2 -34 -5z"></path><path id="p1GUY9qsmA" d="M30 1120 c0 -5 7 -10 15 -10 8 0 15 5 15 10 0 6 -7 10 -15 10 -8 0 -15 -4 -15 -10z"></path><path id="pSw7aLQth" d="M220 930 c0 -5 9 -10 20 -10 11 0 20 5 20 10 0 6 -9 10 -20 10 -11 0 -20 -4 -20 -10z"></path><path id="p6CsRpFQS" d="M1990 930 c0 -5 9 -10 20 -10 11 0 20 5 20 10 0 6 -9 10 -20 10 -11 0 -20 -4 -20 -10z"></path><path id="pJxNWthVE" d="M184 879 c-12 -20 14 -34 33 -17 10 8 25 18 33 21 8 3 -2 6 -22 6 -20 1 -40 -4 -44 -10z"></path><path id="paAppfgMv" d="M2020 881 c0 -5 6 -14 14 -20 10 -8 16 -8 25 2 6 8 8 17 4 20 -9 10 -43 8 -43 -2z"></path><path id="p2mvmyyOf" d="M1971 844 c13 -16 29 -19 29 -5 0 5 -9 11 -21 14 -16 4 -18 3 -8 -9z"></path><path id="p9dkaG5gW" d="M250 840 c0 -5 7 -10 15 -10 8 0 15 5 15 10 0 6 -7 10 -15 10 -8 0 -15 -4 -15 -10z"></path><path id="pm58JAg8h" d="M226 613 l-19 -26 24 6 c13 4 29 7 35 7 7 0 14 9 17 20 8 30 -34 25 -57 -7z"></path><path id="p5tf2nhWb" d="M1967 620 c3 -11 10 -20 17 -20 6 0 22 -3 36 -7 l25 -6 -24 27 c-30 32 -62 36 -54 6z"></path><path id="pPboljbUy" d="M1775 520 c20 -22 39 -27 33 -8 -2 6 -15 15 -28 20 -23 9 -23 8 -5 -12z"></path><path id="pLyrRJdRY" d="M528 476 c-18 -22 -24 -37 -17 -41 6 -4 11 -5 12 -4 7 12 36 79 34 79 -1 0 -14 -15 -29 -34z"></path><path id="p6UznGHJx" d="M1717 461 c6 -25 19 -35 27 -22 3 4 -3 16 -14 26 -18 16 -18 16 -13 -4z"></path><path id="piLiPAQHR" d="M442 458 c-17 -17 -15 -28 7 -28 10 0 21 9 24 20 6 22 -12 27 -31 8z"></path><path id="pkC71oNnp" d="M1777 450 c3 -11 14 -20 24 -20 23 0 25 25 3 34 -26 10 -32 7 -27 -14z"></path><path id="pUIFkWtmR" d="M1310 277 c0 -14 -3 -32 -6 -41 -4 -10 -1 -16 9 -16 13 0 15 8 10 38 -7 45 -13 54 -13 19z"></path><path id="p6RWLfJQc" d="M613 268 c-6 -7 -13 -25 -15 -40 l-5 -27 28 20 c32 23 31 21 23 43 -7 19 -18 20 -31 4z"></path><path id="poHXhxi4o" d="M842 268 c-16 -16 -15 -28 3 -28 8 0 15 9 15 20 0 23 -2 24 -18 8z"></path><path id="p7P7sxYVb" d="M1392 263 c2 -9 9 -18 16 -21 18 -6 15 25 -4 32 -11 4 -14 1 -12 -11z"></path><path id="puNVU1B4Z" d="M1603 263 c-4 -11 3 -23 20 -37 15 -12 27 -27 27 -33 0 -6 7 -16 15 -23 19 -16 19 -1 0 24 -8 11 -15 29 -15 41 0 38 -35 59 -47 28z"></path><path id="p14vay5wHj" d="M930 263 c0 -6 -3 -18 -6 -27 -4 -11 -1 -16 10 -16 9 0 16 6 16 13 0 16 -20 46 -20 30z"></path><path id="pIAIhl0DC" d="M1357 218 c-7 -26 -1 -38 19 -38 18 0 18 19 0 43 -13 16 -14 16 -19 -5z"></path><path id="pJHth0cYX" d="M872 218 c-16 -16 -15 -38 2 -38 20 0 29 17 19 35 -7 12 -12 12 -21 3z"></path><path id="pRte5GglF" d="M1111 136 c-8 -10 -8 -21 -1 -40 5 -15 11 -42 11 -59 1 -25 3 -22 9 17 5 26 11 54 14 61 8 21 -19 38 -33 21z"></path></g></g><g id="l1EiErLrp2xrZHNFngMxzjY" fill="rgb(0,0,0)" style="transform: none;"><g><path id="p18fUIco4n" d="M1115 2147 c-5 -25 -4 -42 3 -49 17 -17 26 17 15 55 l-10 32 -8 -38z"></path><path id="p5L2BoFk6" d="M1039 2074 c-16 -19 -1 -48 27 -51 15 -2 14 -1 -3 7 -25 10 -29 30 -11 48 7 7 9 12 6 12 -3 0 -11 -7 -19 -16z"></path><path id="p16A29dKKI" d="M1104 2074 c9 -8 16 -25 17 -37 1 -18 2 -16 9 7 5 16 15 33 22 37 9 6 10 9 1 9 -7 0 -16 -7 -21 -16 -8 -15 -10 -15 -15 0 -4 9 -11 16 -17 16 -6 0 -4 -7 4 -16z"></path><path id="pXm5qVsTu" d="M1200 2078 c16 -20 12 -38 -12 -48 -18 -8 -19 -9 -4 -7 31 4 44 34 23 52 -9 8 -12 10 -7 3z"></path><path id="pxiG0xirT" d="M860 2046 c0 -7 7 -19 15 -26 13 -11 15 -8 15 14 0 16 -5 26 -15 26 -8 0 -15 -6 -15 -14z"></path><path id="ph6l3rtVe" d="M1360 2034 c0 -22 2 -25 15 -14 8 7 15 19 15 26 0 8 -7 14 -15 14 -10 0 -15 -10 -15 -26z"></path><path id="p6Xh2pJBq" d="M605 2005 c8 -35 28 -52 33 -28 2 8 -6 25 -18 37 l-22 21 7 -30z"></path><path id="pO9sw2Mv3" d="M1627 2012 c-21 -23 -23 -54 -3 -46 13 5 31 52 23 60 -2 2 -11 -4 -20 -14z"></path><path id="pIFb5Q13K" d="M920 2011 c0 -17 18 -21 24 -6 3 9 0 15 -9 15 -8 0 -15 -4 -15 -9z"></path><path id="peLCUsTFY" d="M1073 2003 c-13 -8 -23 -18 -23 -22 0 -3 34 -6 75 -6 41 0 75 2 75 3 0 7 -45 41 -54 42 -6 0 -2 -6 8 -13 17 -12 13 -14 -29 -14 -42 0 -46 2 -29 14 25 18 4 15 -23 -4z"></path><path id="pDMd1K2xR" d="M678 1989 c-10 -5 -18 -15 -18 -22 0 -8 3 -9 8 -1 4 6 16 16 27 22 11 6 16 11 10 11 -5 0 -18 -4 -27 -10z"></path><path id="p1DCuOfoYy" d="M836 1992 c-3 -5 1 -15 9 -22 16 -14 20 -3 6 19 -5 8 -11 9 -15 3z"></path><path id="p17s7fqyql" d="M1394 1985 c-9 -22 1 -29 15 -11 8 10 9 16 1 21 -5 3 -13 -1 -16 -10z"></path><path id="pOWyOQqKm" d="M1555 1988 c11 -6 23 -16 27 -22 5 -8 8 -7 8 1 0 7 -9 17 -19 23 -27 14 -41 12 -16 -2z"></path><path id="ppuvyiT6K" d="M1004 1965 c-4 -8 -13 -15 -20 -15 -8 0 -18 -8 -21 -17 -11 -27 -46 -53 -59 -42 -6 5 -14 6 -17 3 -3 -3 -12 -2 -19 2 -7 5 -52 10 -100 11 -72 2 -91 6 -108 23 -11 11 -28 20 -38 20 -22 0 -52 -30 -52 -51 0 -8 6 -3 13 11 16 31 43 37 68 14 15 -14 17 -20 7 -33 -10 -13 -10 -14 2 -3 15 13 60 17 60 4 0 -4 29 -6 65 -4 55 4 72 0 115 -22 47 -25 81 -36 50 -16 -12 8 -12 12 0 36 8 15 32 40 52 54 21 15 34 30 31 34 -11 10 -23 7 -29 -9z"></path><path id="p1HWIXdyro" d="M1216 1972 c-2 -4 11 -18 29 -31 41 -28 69 -67 61 -87 -4 -10 10 -6 42 11 54 29 130 33 184 11 44 -19 95 -71 110 -113 7 -18 16 -33 20 -33 11 0 10 28 -2 35 -5 3 -10 15 -10 26 0 10 -4 19 -10 19 -5 0 -16 16 -24 35 -8 19 -18 35 -21 35 -3 0 -3 -4 0 -10 3 -5 2 -10 -3 -10 -6 0 -13 7 -16 16 -4 10 -14 14 -26 11 -12 -3 -20 0 -20 8 0 14 -137 18 -146 4 -14 -24 -94 2 -94 30 0 6 -11 16 -25 21 -14 5 -25 14 -25 20 0 12 -17 13 -24 2z"></path><path id="pnlqisj0Z" d="M685 1960 c-8 -12 12 -40 28 -40 6 0 3 6 -8 13 -10 8 -15 19 -11 25 4 7 5 12 2 12 -3 0 -8 -5 -11 -10z"></path><path id="px4E7Hc4O" d="M1555 1959 c8 -22 -12 -34 -30 -19 -9 7 -15 8 -15 2 0 -18 33 -23 49 -7 12 12 13 17 2 27 -10 11 -11 10 -6 -3z"></path><path id="pTzeIHYag" d="M1638 1940 c31 -13 38 -37 16 -61 -15 -17 -16 -19 -1 -14 39 16 21 86 -22 84 -10 0 -8 -4 7 -9z"></path><path id="pdyUvRFpE" d="M1583 1926 c-4 -7 -15 -15 -23 -18 -10 -3 -7 -6 9 -11 13 -3 20 -3 17 0 -3 4 1 15 11 25 9 10 11 18 5 18 -6 0 -15 -6 -19 -14z"></path><path id="pAOecfj7E" d="M613 1913 c13 -3 17 -11 13 -25 -3 -15 -2 -18 6 -10 15 15 2 42 -19 41 -17 -1 -17 -2 0 -6z"></path><path id="pl6gJEcqY" d="M1613 1904 c-3 -8 -1 -20 5 -26 8 -8 9 -5 6 10 -4 14 0 22 13 25 17 4 17 5 0 6 -10 0 -20 -6 -24 -15z"></path><path id="pbaNsaejk" d="M675 1869 c-5 -16 -10 -18 -21 -8 -11 9 -15 6 -20 -20 -4 -17 -13 -31 -20 -31 -8 0 -14 -8 -14 -18 0 -10 -5 -23 -11 -29 -6 -6 -9 -19 -7 -29 2 -13 12 -1 31 37 16 34 41 66 62 80 37 25 44 39 21 39 -8 0 -18 -9 -21 -21z"></path><path id="p1Fv7kR6jd" d="M881 1811 c-17 -16 -31 -33 -31 -38 0 -4 8 1 18 12 9 11 26 28 37 38 10 9 17 17 13 17 -3 0 -20 -13 -37 -29z"></path><path id="p11nog1UkP" d="M1345 1824 c11 -11 28 -28 38 -39 18 -20 18 -20 8 1 -6 12 -23 29 -38 39 -27 17 -28 17 -8 -1z"></path><path id="puiYoyB7V" d="M436 1801 c-4 -5 3 -15 15 -21 18 -10 20 -9 17 6 -4 20 -23 30 -32 15z"></path><path id="p1AFMqi6NX" d="M506 1802 c-3 -6 -1 -14 5 -17 15 -10 25 3 12 16 -7 7 -13 7 -17 1z"></path><path id="p10JlVzZSf" d="M1787 1803 c-4 -3 -7 -12 -7 -20 0 -11 4 -11 20 -3 11 6 18 15 15 21 -7 11 -19 12 -28 2z"></path><path id="ppoG7dsD6" d="M1110 1781 c0 -5 3 -17 6 -26 5 -13 8 -14 15 -3 13 20 11 38 -6 38 -8 0 -15 -4 -15 -9z"></path><path id="pS2Ut37oi" d="M440 1732 c0 -5 7 -13 16 -16 10 -4 14 -1 12 6 -5 15 -28 23 -28 10z"></path><path id="pIJTYJzXv" d="M950 1729 c0 -5 5 -7 10 -4 6 3 10 -1 10 -10 0 -10 -5 -13 -12 -9 -8 5 -7 0 2 -11 14 -17 15 -17 18 -1 2 9 1 24 -2 32 -6 16 -26 19 -26 3z"></path><path id="pcOJGgLUj" d="M1661 1668 c1 -29 4 -42 6 -30 4 21 8 23 40 17 19 -3 41 -9 50 -12 11 -4 14 -2 11 8 -3 8 -13 15 -24 16 -36 2 -64 15 -64 29 0 7 -4 16 -10 19 -6 4 -9 -14 -9 -47z"></path><path id="p1FWj9SKur" d="M570 1695 c0 -8 -9 -15 -20 -15 -11 0 -20 -4 -20 -10 0 -5 -10 -9 -21 -7 -12 1 -24 -4 -27 -12 -3 -10 0 -12 11 -8 9 3 32 9 51 13 33 6 36 4 37 -17 0 -21 1 -22 8 -5 9 23 2 76 -10 76 -5 0 -9 -7 -9 -15z"></path><path id="pm6hxd0jY" d="M780 1691 c0 -5 7 -14 15 -21 13 -10 15 -9 15 9 0 12 -6 21 -15 21 -8 0 -15 -4 -15 -9z"></path><path id="px0dvTOzF" d="M1440 1684 c0 -9 5 -14 12 -12 18 6 21 28 4 28 -9 0 -16 -7 -16 -16z"></path><path id="p1E3FELope" d="M1205 1650 c-4 -17 -5 -34 -2 -36 3 -3 8 9 12 26 4 17 5 34 2 36 -3 3 -8 -9 -12 -26z"></path><path id="pEDnhPCNs" d="M310 1655 c-7 -8 -10 -26 -8 -40 4 -18 1 -25 -11 -26 -9 -1 0 -5 19 -9 19 -5 42 -4 52 1 22 12 28 11 28 -1 0 -5 -7 -10 -15 -10 -9 0 -15 -9 -15 -25 0 -14 -4 -25 -10 -25 -5 0 -10 8 -10 17 0 9 -2 14 -5 11 -8 -8 6 -68 16 -68 5 0 9 8 9 18 0 27 42 89 77 115 18 13 30 27 27 30 -10 9 -34 -4 -34 -19 0 -8 -7 -14 -15 -14 -9 0 -30 -7 -46 -16 -24 -12 -34 -13 -45 -3 -17 14 -18 51 -2 67 7 7 9 12 6 12 -3 0 -11 -7 -18 -15z"></path><path id="p14Z5Fvxss" d="M359 1662 c8 -6 12 -19 8 -32 -4 -16 -3 -20 4 -13 15 15 7 45 -11 50 -12 4 -13 3 -1 -5z"></path><path id="p8884W3eK" d="M1031 1660 c0 -8 4 -24 8 -35 7 -17 8 -17 13 7 3 15 2 25 -3 23 -4 -3 -10 1 -12 7 -4 9 -5 8 -6 -2z"></path><path id="pk4Q3avYh" d="M1877 1663 c-10 -9 -8 -41 2 -47 5 -4 7 3 4 15 -4 12 0 25 8 30 8 5 9 9 3 9 -6 0 -14 -3 -17 -7z"></path><path id="p19SqcPOJb" d="M232 1623 c22 -21 30 -25 40 -15 15 15 3 27 -37 36 l-30 7 27 -28z"></path><path id="p15tBzK50k" d="M1090 1625 c-1 -26 -3 -27 -10 -10 -7 15 -9 16 -9 4 -1 -11 -15 -19 -43 -24 -24 -4 -51 -9 -60 -11 -11 -2 -20 6 -26 24 -6 15 -11 21 -11 14 -1 -7 4 -22 9 -33 14 -24 -5 -26 -20 -1 -9 15 -10 14 -5 -5 4 -13 2 -23 -3 -23 -17 0 -23 32 -10 49 11 15 10 15 -6 0 -14 -13 -16 -21 -7 -37 8 -15 7 -23 -5 -33 -13 -11 -19 -9 -36 11 l-20 25 16 -27 c14 -25 15 -28 1 -28 -8 0 -15 -6 -15 -12 -1 -7 -10 -2 -21 11 -11 13 -22 22 -24 19 -3 -3 1 -11 10 -18 8 -7 15 -19 15 -27 0 -13 -3 -13 -17 -2 -16 13 -17 12 -4 -3 17 -23 3 -23 -21 -1 -10 9 -18 11 -18 6 0 -6 7 -14 16 -17 8 -3 12 -11 9 -16 -5 -8 -12 -7 -23 2 -15 12 -16 11 -3 -5 22 -28 4 -33 -27 -6 l-27 24 23 -26 c12 -14 22 -29 22 -32 0 -4 -10 -3 -22 3 -22 11 -22 10 -4 -4 11 -9 17 -19 13 -23 -4 -3 -15 2 -26 11 -11 10 -21 13 -25 7 -4 -5 3 -12 14 -16 11 -3 20 -11 20 -17 0 -6 -8 -7 -17 -3 -15 5 -16 4 -5 -6 21 -22 13 -32 -13 -15 -14 9 -25 12 -25 7 0 -5 9 -13 20 -16 23 -7 25 -18 7 -37 -8 -7 -12 -19 -9 -26 2 -8 -3 -10 -15 -6 -14 4 -15 4 -4 -4 7 -5 10 -15 7 -21 -4 -6 -3 -11 3 -11 5 0 12 13 16 29 8 38 68 137 108 179 181 190 501 190 684 0 40 -41 100 -141 108 -179 4 -16 11 -29 16 -29 6 0 7 5 3 11 -3 6 0 16 7 21 11 8 10 8 -4 4 -12 -4 -17 -2 -15 6 3 7 -1 19 -9 26 -18 19 -16 30 7 37 11 3 20 11 20 16 0 5 -11 2 -25 -7 -26 -17 -34 -7 -12 15 10 10 9 11 -5 6 -10 -4 -18 -3 -18 3 0 6 9 14 20 17 11 4 18 11 14 16 -4 6 -14 3 -25 -7 -11 -9 -22 -14 -26 -11 -4 4 2 14 13 23 18 14 18 15 -3 4 -13 -6 -23 -7 -23 -3 0 3 10 18 23 32 l22 26 -27 -24 c-31 -27 -49 -22 -27 6 13 17 13 17 -4 4 -16 -13 -20 -13 -28 0 -5 8 -7 19 -4 26 2 7 -2 10 -11 6 -19 -7 -18 11 1 27 9 7 13 15 10 18 -2 3 -14 -6 -26 -19 l-21 -24 6 24 c4 18 2 21 -7 12 -21 -21 -28 -11 -11 17 l16 27 -20 -25 c-17 -20 -23 -22 -36 -11 -12 10 -13 18 -5 33 8 15 8 23 -2 32 -9 8 -10 8 -5 -1 8 -14 -3 -43 -16 -43 -6 0 -7 8 -3 18 5 14 4 15 -6 5 -20 -20 -31 -15 -19 6 5 11 10 26 9 33 0 7 -5 1 -11 -14 -10 -30 -34 -40 -24 -10 5 15 4 15 -6 1 -9 -13 -18 -14 -52 -5 -22 6 -44 15 -48 21 -5 7 -8 7 -8 0 0 -6 -9 -11 -20 -12 -14 -1 -20 5 -21 20 -1 20 -2 20 -9 -3 -7 -25 -9 -24 -23 20 -3 8 -6 2 -7 -15z"></path><path id="pqCj4qtG4" d="M1787 1644 c-3 -3 15 -24 39 -46 24 -22 49 -55 56 -74 12 -35 28 -46 28 -19 0 8 -4 15 -10 15 -5 0 -10 11 -10 25 0 16 -6 25 -15 25 -8 0 -15 9 -15 20 0 13 -7 20 -20 20 -11 0 -20 6 -20 14 0 14 -24 29 -33 20z"></path><path id="pNlpsoKyK" d="M2005 1641 c-17 -3 -31 -14 -33 -24 -5 -25 21 -21 48 8 13 14 22 24 19 24 -2 -1 -17 -4 -34 -8z"></path><path id="p19jvSxV7s" d="M1928 1597 c-13 -18 -19 -20 -29 -9 -7 6 -18 12 -23 12 -6 0 -1 -6 10 -14 14 -10 30 -12 54 -6 19 4 27 8 18 9 -11 1 -15 6 -12 16 8 21 2 18 -18 -8z"></path><path id="pmTs8FPCu" d="M671 1568 c0 -10 8 -22 18 -28 26 -14 31 -13 25 4 -3 8 -12 12 -19 10 -7 -3 -15 3 -18 13 -4 16 -5 16 -6 1z"></path><path id="pjkeS7TUm" d="M1571 1566 c-1 -11 -6 -16 -15 -13 -8 3 -17 -1 -20 -9 -7 -18 5 -18 28 -1 11 8 16 20 13 28 -4 10 -6 9 -6 -5z"></path><path id="pw66sfPX6" d="M251 1545 c-1 -25 17 -45 39 -44 10 0 9 3 -5 8 -11 4 -23 19 -26 32 -6 21 -7 21 -8 4z"></path><path id="pa24l1ReW" d="M1087 1553 c18 -2 50 -2 70 0 21 2 7 4 -32 4 -38 0 -55 -2 -38 -4z"></path><path id="piBjPUbk0" d="M1991 1542 c-1 -13 -10 -26 -23 -32 -16 -6 -18 -9 -7 -9 22 -1 42 24 36 46 -4 14 -5 13 -6 -5z"></path><path id="prTvNbzom" d="M905 1501 c-53 -30 -134 -111 -154 -152 l-12 -24 18 25 c42 60 107 119 160 148 32 17 54 32 48 32 -5 0 -32 -13 -60 -29z"></path><path id="p16rug8Aja" d="M1281 1527 c17 -14 98 -54 94 -46 -7 10 -79 49 -91 49 -4 0 -5 -1 -3 -3z"></path><path id="p1GqtCG0W3" d="M335 1457 c-4 -10 -5 -21 -1 -24 10 -10 18 4 13 24 -4 17 -4 17 -12 0z"></path><path id="pt38NEiTP" d="M1430 1425 c25 -27 53 -61 63 -75 17 -24 17 -24 0 8 -9 18 -38 51 -62 75 l-45 42 44 -50z"></path><path id="pqsMO1jSA" d="M1900 1450 c0 -19 3 -21 12 -12 9 9 9 15 0 24 -9 9 -12 7 -12 -12z"></path><path id="pEdrZvQZv" d="M542 1448 c3 -7 15 -15 28 -16 21 -3 22 -2 11 12 -16 19 -44 21 -39 4z"></path><path id="p18qSPkmBQ" d="M1669 1444 c-11 -14 -10 -15 11 -12 13 1 25 9 28 16 5 17 -23 15 -39 -4z"></path><path id="pp1FdgZ7S" d="M340 1401 c0 -11 4 -22 9 -26 22 -13 -1 -81 -30 -90 -10 -4 -19 -15 -19 -26 0 -10 -7 -19 -15 -19 -9 0 -15 -9 -15 -25 0 -14 -4 -25 -8 -25 -12 0 -42 -56 -41 -77 0 -10 5 -3 10 15 5 17 14 32 19 32 14 0 12 -14 -2 -28 -9 -9 -9 -15 0 -24 17 -17 15 -31 -3 -24 -12 4 -13 2 -2 -14 6 -11 15 -20 19 -20 5 0 8 -11 8 -25 0 -16 6 -25 15 -25 8 0 15 -9 15 -20 0 -11 4 -20 10 -20 31 0 60 -74 37 -97 -10 -10 -8 -45 2 -39 4 3 11 18 14 33 11 47 23 60 46 46 17 -11 19 -10 15 2 -4 8 -10 15 -14 15 -5 0 -7 17 -5 38 3 20 2 28 -1 17 -12 -47 -12 -47 -45 -28 -39 22 -78 79 -89 129 -18 78 28 187 92 220 30 16 30 16 42 -31 3 -11 4 -4 2 15 -2 19 3 40 10 48 8 7 14 19 14 25 0 7 -5 4 -11 -5 -5 -10 -16 -18 -23 -18 -13 0 -36 41 -36 65 0 8 -4 17 -10 20 -5 3 -10 -3 -10 -14z"></path><path id="pFW6Fu8hv" d="M1886 1377 c-10 -26 -23 -47 -29 -47 -6 0 -22 12 -35 28 l-23 27 17 -32 c10 -18 22 -33 26 -33 4 0 6 -12 4 -27 -2 -16 -1 -21 1 -13 9 29 20 30 53 8 37 -25 76 -94 84 -146 7 -54 -20 -128 -65 -173 -44 -44 -59 -46 -71 -8 -6 19 -7 18 -3 -7 3 -26 -2 -39 -32 -69 -23 -24 -28 -33 -15 -26 12 6 26 20 32 31 17 32 36 23 58 -27 14 -33 21 -41 21 -26 1 12 -3 24 -8 28 -22 13 1 81 30 90 10 4 19 15 19 26 0 10 7 19 15 19 9 0 15 9 15 25 0 14 4 25 8 25 12 0 42 56 41 77 0 10 -5 3 -10 -14 -5 -18 -14 -33 -19 -33 -14 0 -12 14 2 28 9 9 9 15 0 24 -17 17 -15 31 3 24 12 -4 13 -2 2 14 -6 11 -15 20 -19 20 -5 0 -8 11 -8 25 0 16 -6 25 -15 25 -8 0 -15 9 -15 20 0 11 -4 20 -10 20 -5 0 -18 9 -29 21 -19 21 -21 47 -6 81 4 10 5 23 3 29 -2 7 -12 -9 -22 -34z"></path><path id="p1EIO31ziX" d="M190 1365 c0 -10 7 -15 18 -13 21 4 19 22 -2 26 -10 2 -16 -3 -16 -13z"></path><path id="prfukLUPp" d="M2027 1374 c-9 -10 2 -24 19 -24 8 0 14 7 14 15 0 15 -21 21 -33 9z"></path><path id="p1GpvbJ73J" d="M1604 1308 c-7 -11 18 -10 36 2 11 7 10 9 -8 7 -13 -1 -26 -5 -28 -9z"></path><path id="p6j3Od3kX" d="M633 1223 c20 -5 22 -19 5 -26 -9 -4 -9 -6 -1 -6 6 -1 9 -10 6 -22 -4 -16 -12 -20 -29 -16 -13 2 -24 0 -24 -4 0 -5 11 -9 25 -9 18 0 25 -5 25 -20 0 -15 -7 -20 -25 -20 -14 0 -25 -4 -25 -9 0 -4 11 -6 25 -3 28 5 35 -14 8 -21 -13 -3 -11 -5 7 -7 23 -1 22 -3 -10 -16 l-35 -14 33 6 c33 6 46 -11 15 -19 -15 -4 -14 -5 3 -6 22 -1 29 -30 10 -44 -7 -6 -4 -7 7 -3 12 4 17 2 15 -6 -3 -7 1 -19 9 -26 18 -19 16 -30 -7 -37 -11 -3 -20 -11 -20 -18 0 -8 3 -8 12 1 7 7 18 12 26 12 12 0 12 -3 2 -15 -11 -13 -10 -14 4 -9 9 3 16 1 16 -4 0 -6 -9 -14 -20 -17 -11 -4 -18 -11 -14 -16 4 -6 14 -3 25 7 11 9 22 14 26 10 4 -4 1 -12 -7 -17 -12 -9 -12 -10 3 -5 23 7 22 -7 -3 -29 -11 -10 -18 -20 -15 -23 2 -3 13 6 24 19 11 13 23 21 27 17 4 -4 1 -16 -7 -25 -13 -17 -13 -17 4 -4 16 13 20 13 28 0 5 -8 7 -19 4 -26 -2 -7 2 -10 11 -6 19 7 18 -11 -1 -27 -9 -7 -13 -15 -10 -18 2 -3 14 6 26 19 l21 24 -6 -24 c-4 -18 -2 -21 7 -12 21 21 28 11 11 -16 l-16 -28 20 25 c17 20 23 22 36 11 12 -10 13 -18 5 -33 -6 -11 -8 -22 -6 -25 3 -2 8 5 12 16 3 12 11 21 17 21 6 0 7 -8 3 -17 -5 -15 -4 -16 6 -5 20 19 31 14 19 -7 -5 -11 -10 -26 -9 -33 0 -7 5 -1 11 15 10 29 34 39 24 10 -5 -16 -4 -16 6 -2 9 14 17 15 41 7 23 -9 28 -15 24 -34 -2 -13 0 -24 4 -24 5 0 9 11 9 25 0 14 5 25 10 25 6 0 10 -6 10 -12 0 -9 3 -9 9 1 7 11 10 7 14 -15 l4 -29 2 28 c1 32 21 37 22 5 1 -22 1 -22 9 2 7 25 9 24 23 -20 3 -8 6 -1 6 15 1 23 4 27 11 15 6 -10 10 -11 10 -2 0 6 5 12 10 12 6 0 10 -11 10 -24 0 -14 4 -28 10 -31 6 -4 7 5 4 23 -6 31 1 37 60 48 19 3 26 -2 34 -23 6 -16 11 -22 11 -15 1 7 -4 22 -9 33 -12 21 -1 26 19 7 10 -11 11 -10 6 5 -4 9 -3 17 3 17 6 0 14 -9 17 -21 4 -11 9 -18 12 -16 2 3 0 14 -6 25 -8 15 -7 23 5 33 13 11 19 9 36 -11 l20 -25 -16 28 c-17 27 -10 37 11 16 9 -9 11 -6 7 12 l-6 24 21 -24 c12 -13 24 -22 26 -19 3 3 -1 11 -10 18 -20 17 -19 34 1 26 14 -5 15 -4 4 9 -8 9 -8 15 -2 15 6 0 14 -4 17 -10 3 -5 11 -10 18 -10 6 0 2 6 -9 14 -10 8 -16 18 -12 22 4 4 16 1 25 -7 16 -13 17 -12 4 4 -8 9 -11 21 -7 25 4 4 16 -4 27 -17 11 -13 22 -22 24 -19 3 3 -4 13 -15 23 -27 24 -25 38 3 25 21 -11 21 -10 3 4 -11 9 -17 19 -13 23 4 3 16 -2 27 -12 11 -10 20 -13 20 -7 0 6 -7 15 -15 19 -9 5 -12 17 -8 31 5 21 7 22 29 7 13 -8 24 -11 24 -6 0 5 -9 13 -20 16 -23 7 -25 18 -7 37 8 7 12 18 10 25 -2 6 4 10 14 9 10 -2 12 -1 6 1 -22 7 -11 35 17 46 12 4 11 6 -2 6 -10 1 -18 6 -18 12 0 6 12 8 33 5 24 -5 27 -4 12 3 -40 19 -52 13 -59 -27 -16 -100 -113 -235 -214 -296 -154 -93 -355 -90 -506 8 -144 94 -228 267 -212 437 6 67 5 69 -16 68 -17 -1 -19 -2 -5 -6z"></path><path id="pKEvlOA8U" d="M1594 1193 c3 -21 6 -59 6 -85 0 -43 2 -48 23 -47 16 1 18 2 5 6 -28 7 -21 26 7 21 14 -3 25 -1 25 3 0 5 -11 9 -25 9 -18 0 -25 5 -25 20 0 15 7 20 25 20 14 0 25 4 25 9 0 4 -11 6 -25 3 -37 -7 -35 33 3 47 27 11 27 11 -5 5 -34 -6 -47 11 -15 19 12 3 10 5 -7 6 -22 1 -23 -2 -17 -36z"></path><path id="pEnqPS59H" d="M162 1198 c-15 -15 -15 -38 -2 -58 8 -11 9 -7 4 14 -5 22 -2 32 11 43 11 7 14 13 9 13 -6 0 -15 -5 -22 -12z"></path><path id="p1fPgBIS2" d="M420 1185 c-13 -14 -22 -27 -19 -29 2 -2 14 10 27 25 29 36 24 38 -8 4z"></path><path id="pNQfZjQua" d="M1821 1184 c13 -17 26 -30 28 -27 3 2 -8 16 -24 31 l-28 27 24 -31z"></path><path id="pk97HbAg0" d="M2073 1199 c9 -5 18 -20 18 -32 1 -18 2 -18 6 -4 5 20 -13 47 -31 47 -6 0 -3 -5 7 -11z"></path><path id="p1CJLEQ1kp" d="M98 1133 c-26 -7 -22 -20 8 -27 29 -8 50 5 40 23 -7 11 -18 12 -48 4z"></path><path id="p12FNoLykH" d="M2104 1129 c-10 -18 11 -31 40 -23 32 8 34 20 4 28 -32 8 -36 8 -44 -5z"></path><path id="p5FDpSUSb" d="M450 1120 c0 -5 9 -10 20 -10 11 0 20 5 20 10 0 6 -9 10 -20 10 -11 0 -20 -4 -20 -10z"></path><path id="p1FD5EMQlj" d="M1760 1120 c0 -5 9 -10 20 -10 11 0 20 5 20 10 0 6 -9 10 -20 10 -11 0 -20 -4 -20 -10z"></path><path id="p1Cj6V9BGF" d="M397 1091 c3 -11 17 -30 31 -43 l27 -23 -22 26 c-13 14 -23 30 -23 37 0 6 -4 13 -9 16 -5 4 -7 -3 -4 -13z"></path><path id="p1CCTnyI3B" d="M151 1075 c-1 -22 16 -45 33 -45 5 0 3 6 -6 13 -9 6 -18 21 -21 32 -5 20 -5 20 -6 0z"></path><path id="p1CdRM5QG0" d="M2091 1073 c0 -12 -9 -27 -18 -32 -10 -6 -13 -11 -7 -11 18 0 36 27 31 47 -4 14 -5 14 -6 -4z"></path><path id="pe9YqCmeS" d="M757 882 c9 -18 38 -51 62 -75 l45 -42 -44 50 c-25 28 -53 61 -63 75 -17 24 -17 24 0 -8z"></path><path id="pXhyEnYHu" d="M190 875 c0 -10 7 -15 18 -13 21 4 19 22 -2 26 -10 2 -16 -3 -16 -13z"></path><path id="p8EqeNHhn" d="M1441 827 c-37 -42 -42 -51 -17 -27 34 31 83 90 74 90 -2 0 -27 -28 -57 -63z"></path><path id="puAs5duyj" d="M2027 884 c-9 -10 2 -24 19 -24 8 0 14 7 14 15 0 15 -21 21 -33 9z"></path><path id="p1G1ztGUxh" d="M334 799 c-3 -6 -1 -16 5 -22 8 -8 11 -5 11 11 0 24 -5 28 -16 11z"></path><path id="pdIVJ9oR" d="M545 799 c-4 -6 -4 -13 -1 -16 8 -8 36 5 36 17 0 13 -27 13 -35 -1z"></path><path id="pxV2pF9rw" d="M1669 796 c16 -19 44 -21 39 -3 -3 6 -15 14 -28 15 -21 3 -22 2 -11 -12z"></path><path id="plYAW21o" d="M1900 790 c0 -19 3 -21 12 -12 9 9 9 15 0 24 -9 9 -12 7 -12 -12z"></path><path id="p7rZo7AXP" d="M876 759 c6 -11 84 -52 89 -47 2 2 -19 15 -46 29 -27 15 -46 23 -43 18z"></path><path id="pQoKEue7P" d="M1325 739 c-27 -16 -46 -29 -42 -29 13 0 85 39 92 50 8 13 10 13 -50 -21z"></path><path id="pc9G36XLb" d="M344 746 c-5 -12 -3 -21 4 -24 7 -2 12 -15 12 -28 0 -15 6 -24 15 -24 8 0 15 -9 15 -20 0 -13 7 -20 20 -20 11 0 20 -6 20 -14 0 -18 17 -29 31 -21 6 4 -3 17 -22 30 -38 29 -59 57 -75 104 -11 31 -13 33 -20 17z"></path><path id="ppybMmfEx" d="M750 741 c0 -11 3 -22 8 -24 4 -3 7 6 7 19 0 13 -3 24 -7 24 -5 0 -8 -9 -8 -19z"></path><path id="pxSislAn3" d="M1890 742 c0 -26 -47 -95 -80 -117 -16 -11 -27 -23 -24 -27 7 -11 34 2 34 17 0 7 15 16 33 20 17 4 26 9 20 12 -18 7 -16 23 2 23 9 0 15 9 15 25 0 14 5 25 10 25 6 0 10 9 10 20 0 11 -4 20 -10 20 -5 0 -10 -8 -10 -18z"></path><path id="pke6xmm07" d="M1968 730 c13 -6 22 -19 23 -32 1 -18 2 -19 6 -5 6 22 -14 47 -36 46 -11 0 -9 -3 7 -9z"></path><path id="pBOZSjGP9" d="M257 723 c-22 -21 2 -73 33 -73 12 0 15 -7 12 -28 -2 -19 2 -33 15 -42 15 -12 16 -12 6 0 -26 29 -3 93 26 75 7 -3 8 0 5 10 -5 12 -10 13 -20 5 -7 -7 -25 -10 -41 -8 -24 3 -28 7 -28 36 0 17 0 32 -1 32 0 0 -4 -3 -7 -7z"></path><path id="p1BZnw6DF6" d="M686 697 c-11 -8 -16 -20 -13 -28 4 -10 6 -9 6 5 1 11 6 16 15 13 8 -3 17 1 20 9 7 18 -5 18 -28 1z"></path><path id="pAcBUyh7k" d="M1540 690 c6 -11 13 -20 16 -20 3 0 2 5 -1 10 -3 6 -1 10 4 10 6 0 11 -8 12 -17 0 -13 2 -14 6 -4 3 8 -2 20 -13 28 -26 19 -36 16 -24 -7z"></path><path id="p2Vc8zDDk" d="M1087 683 c18 -2 50 -2 70 0 21 2 7 4 -32 4 -38 0 -55 -2 -38 -4z"></path><path id="pzd02W05q" d="M1895 660 c-3 -5 0 -7 8 -4 9 3 22 -5 32 -18 11 -15 15 -17 12 -5 -4 11 -1 17 10 17 24 0 13 6 -24 13 -18 4 -35 2 -38 -3z"></path><path id="pZe3qyPaG" d="M229 614 l-24 -26 30 8 c40 9 45 13 45 30 0 22 -24 17 -51 -12z"></path><path id="pGHpdmsr9" d="M577 611 l6 -34 -37 7 c-21 4 -44 10 -53 13 -11 4 -14 2 -11 -8 3 -8 13 -15 24 -16 38 -3 62 -15 70 -36 6 -17 8 -11 11 25 2 26 -1 56 -6 65 -8 14 -9 10 -4 -16z"></path><path id="phgrUuDAs" d="M1880 625 c-14 -17 -10 -47 8 -51 7 -1 8 0 2 3 -14 7 -13 36 2 51 7 7 9 12 6 12 -3 0 -11 -7 -18 -15z"></path><path id="p11sQWqdW1" d="M1974 629 c-8 -14 4 -25 41 -34 l30 -7 -24 26 c-27 28 -36 32 -47 15z"></path><path id="pHYm4HnUP" d="M367 610 c4 -13 0 -26 -8 -32 -12 -8 -11 -9 1 -5 18 5 26 35 11 50 -7 7 -8 3 -4 -13z"></path><path id="pyhlVvv4T" d="M1659 605 c-2 -11 -2 -36 2 -55 6 -31 7 -33 14 -12 4 12 15 22 26 22 11 0 19 4 19 10 0 5 10 9 21 7 12 -1 24 4 27 12 3 10 0 12 -11 8 -9 -3 -31 -9 -50 -12 -32 -6 -36 -4 -39 17 -3 21 -4 21 -9 3z"></path><path id="p6pON908t" d="M1528 571 c-2 -22 0 -37 3 -35 9 5 17 74 8 74 -4 0 -9 -18 -11 -39z"></path><path id="pG2zosQGu" d="M1605 575 c-16 -8 -23 -14 -14 -15 8 0 24 7 35 15 23 18 18 18 -21 0z"></path><path id="p1FQ3rTkyg" d="M792 568 c-16 -16 -15 -28 3 -28 8 0 15 9 15 20 0 23 -2 24 -18 8z"></path><path id="p10wV7NhI" d="M1440 561 c0 -12 6 -21 15 -21 8 0 15 4 15 9 0 5 -7 14 -15 21 -13 10 -15 9 -15 -9z"></path><path id="pQBqw5h8W" d="M580 496 c0 -8 5 -18 10 -21 6 -3 10 -15 10 -26 0 -10 4 -19 9 -19 5 0 20 -22 33 -50 23 -46 24 -51 8 -65 -35 -32 -86 -2 -62 36 7 10 8 19 3 19 -19 0 -23 -41 -5 -61 22 -24 49 -24 73 0 10 10 25 21 32 24 10 4 9 6 -3 6 -20 1 -43 37 -29 45 5 3 11 -3 14 -14 3 -11 12 -20 21 -20 25 0 19 13 -19 39 -20 13 -44 44 -57 72 -23 48 -38 62 -38 35z"></path><path id="pTTJFW5Wc" d="M1642 478 c-12 -35 -46 -76 -84 -102 -24 -17 -21 -30 6 -20 9 3 16 13 16 21 0 8 5 11 10 8 18 -11 -9 -45 -35 -45 -14 0 -25 4 -25 8 0 4 -30 6 -67 4 -58 -3 -75 0 -115 22 -30 16 -45 20 -42 11 8 -19 -23 -62 -63 -90 -20 -13 -30 -26 -24 -29 6 -4 18 2 28 13 9 11 20 18 25 15 4 -3 12 6 17 19 5 13 17 27 26 31 24 9 63 8 69 -2 3 -5 47 -9 97 -10 72 -1 95 -5 101 -17 5 -8 14 -15 21 -15 7 0 5 7 -5 16 -15 15 -15 19 3 48 10 17 19 39 19 49 0 9 7 17 15 17 8 0 15 9 15 19 0 11 5 23 10 26 12 7 13 35 2 35 -4 0 -13 -15 -20 -32z"></path><path id="p1DdVhuBQ7" d="M1116 485 c-10 -26 -7 -35 9 -35 17 0 19 18 6 38 -7 11 -10 10 -15 -3z"></path><path id="pcircnYl9" d="M446 457 c-14 -10 -16 -16 -7 -22 15 -9 35 8 30 24 -3 8 -10 7 -23 -2z"></path><path id="p1N9IVap6" d="M859 454 c6 -12 23 -29 38 -38 l28 -17 -24 21 c-14 12 -31 29 -38 38 -13 15 -13 15 -4 -4z"></path><path id="pnLskoYkH" d="M1360 433 c-31 -32 -32 -34 -7 -18 15 10 32 26 38 36 13 26 10 23 -31 -18z"></path><path id="pQItmDAW2" d="M1782 453 c2 -10 11 -19 21 -21 24 -5 21 15 -4 28 -18 10 -20 9 -17 -7z"></path><path id="pkqYCLLHI" d="M1722 451 c2 -7 7 -12 11 -12 12 1 9 15 -3 20 -7 2 -11 -2 -8 -8z"></path><path id="pS1vd355y" d="M900 373 c-38 -21 -55 -24 -112 -21 -47 3 -68 0 -68 -8 0 -14 137 -16 146 -3 8 13 57 10 75 -4 8 -7 18 -20 22 -29 3 -10 12 -18 18 -18 7 0 21 -7 31 -17 10 -9 21 -13 25 -9 5 4 -1 12 -12 18 -36 20 -86 82 -81 101 2 9 3 17 3 16 -1 0 -22 -12 -47 -26z"></path><path id="poPU0N90O" d="M626 352 c4 -14 0 -22 -13 -25 -17 -4 -17 -5 0 -6 21 -1 34 26 19 41 -8 8 -9 5 -6 -10z"></path><path id="p2OJa9Y3I" d="M1614 355 c-8 -19 4 -35 24 -34 14 1 14 2 -1 6 -13 3 -17 11 -14 24 6 22 -1 26 -9 4z"></path><path id="p11Ve2v9z1" d="M1668 332 c-3 -12 -17 -26 -30 -31 -14 -6 -17 -10 -7 -10 20 -1 52 34 47 51 -3 7 -7 3 -10 -10z"></path><path id="p12GCdbRuP" d="M1545 307 c11 -9 15 -19 10 -28 -6 -11 -5 -12 5 -2 11 10 11 15 0 28 -7 8 -17 15 -23 15 -6 0 -3 -6 8 -13z"></path><path id="p1Er41zxg7" d="M618 266 c-10 -10 -18 -27 -18 -39 l0 -21 21 21 c12 11 19 29 17 39 -3 17 -4 17 -20 0z"></path><path id="piw0ct5iG" d="M660 271 c0 -13 39 -35 48 -27 3 3 0 6 -6 6 -6 0 -18 7 -26 16 -9 8 -16 11 -16 5z"></path><path id="pVhZJzNHF" d="M841 266 c-8 -10 -9 -16 -1 -21 5 -3 13 1 16 10 9 22 -1 29 -15 11z"></path><path id="p7cB5Rdbh" d="M1390 267 c0 -19 16 -31 24 -18 3 5 -1 14 -9 21 -12 10 -15 10 -15 -3z"></path><path id="pvOtH19s7" d="M1610 261 c0 -10 10 -26 22 -37 21 -19 21 -19 15 6 -4 14 -7 28 -7 31 0 4 -7 9 -15 13 -10 3 -15 -1 -15 -13z"></path><path id="pFHJbLMKK" d="M1050 260 c0 -3 10 -12 23 -19 l22 -15 -24 -6 c-37 -9 -50 -36 -26 -57 17 -16 18 -17 6 -1 -19 25 -8 44 30 52 30 6 31 7 14 19 -15 12 -12 14 30 14 42 0 46 -2 29 -14 -10 -7 -14 -13 -8 -13 9 1 54 35 54 42 0 1 -34 3 -75 3 -41 0 -75 -2 -75 -5z"></path><path id="pNzqjChkb" d="M1307 241 c-3 -14 0 -21 9 -21 16 0 18 9 5 28 -6 10 -10 9 -14 -7z"></path><path id="pPqvQ4CmN" d="M871 216 c-11 -13 -11 -20 -3 -28 15 -15 24 -5 20 23 -3 21 -4 21 -17 5z"></path><path id="p1HpTl5212" d="M1360 206 c0 -16 5 -26 15 -26 8 0 15 6 15 14 0 7 -7 19 -15 26 -13 11 -15 8 -15 -14z"></path><path id="padpF2CS6" d="M1114 185 c-9 -28 -8 -33 2 -24 8 7 14 7 19 -1 3 -5 12 -10 18 -10 9 0 8 3 -1 9 -7 4 -16 20 -20 34 l-7 27 -11 -35z"></path><path id="pvPfmo5or" d="M1159 204 c-13 -16 -12 -16 8 -3 18 11 25 11 35 1 10 -10 10 -17 -1 -35 -13 -21 -13 -21 5 -4 15 13 16 21 8 35 -15 24 -38 26 -55 6z"></path><path id="p7KF8SClk" d="M1114 136 c-4 -9 -2 -31 3 -49 l10 -32 8 38 c8 42 -8 76 -21 43z"></path></g></g></svg>